/* XPM */
static char *b7868476a2c143379acc69d0086d98e682OsJadWTXu3m6Fp[] = {
/* columns rows colors chars-per-pixel */
"64 64 194 2 ",
"   c black",
".  c #0F0E0D",
"X  c #110D0B",
"o  c #1A0F0B",
"O  c #14130E",
"+  c #19150E",
"@  c #1D190F",
"#  c #121107",
"$  c #0F0E10",
"%  c #110E12",
"&  c #180F14",
"*  c #151413",
"=  c #1A1613",
"-  c #171814",
";  c #1C1A15",
":  c #151318",
">  c #1B1619",
",  c #171919",
"<  c #1C1C1A",
"1  c #221B0F",
"2  c #231C14",
"3  c #2A1F16",
"4  c #231E19",
"5  c #291E1A",
"6  c #1D2116",
"7  c #1E211C",
"8  c #242116",
"9  c #292116",
"0  c #24231C",
"q  c #2A241A",
"w  c #26291F",
"e  c #2B291D",
"r  c #1D1D23",
"t  c #1E1721",
"y  c #201E21",
"u  c #1F2221",
"i  c #242522",
"p  c #292621",
"a  c #262924",
"s  c #2A2B25",
"d  c #252629",
"f  c #262B2A",
"g  c #2B2D2A",
"h  c #332C24",
"j  c #302E2B",
"k  c #392F2B",
"l  c #382823",
"z  c #2D3127",
"x  c #2D322C",
"c  c #343124",
"v  c #32332D",
"b  c #3B342C",
"n  c #32382F",
"m  c #3B3B2E",
"M  c #3B3226",
"N  c #2B2E31",
"B  c #252D33",
"V  c #2E3132",
"C  c #2F3430",
"Z  c #2E3532",
"A  c #2E3232",
"S  c #2F323D",
"D  c #303132",
"F  c #323632",
"G  c #313636",
"H  c #333532",
"J  c #393733",
"K  c #353935",
"L  c #393B35",
"P  c #33333A",
"I  c #353B3B",
"U  c #3A3D3A",
"Y  c #42362C",
"T  c #423A2E",
"R  c #483E37",
"E  c #423E3C",
"W  c #493F38",
"Q  c #463F36",
"!  c #3D4133",
"~  c #3C413D",
"^  c #42433D",
"/  c #4D423D",
"(  c #57413F",
")  c #594439",
"_  c #3C3E44",
"`  c #363A40",
"'  c #3C4243",
"]  c #3A4545",
"[  c #414542",
"{  c #424342",
"}  c #454944",
"|  c #494A45",
" . c #41464A",
".. c #444D4D",
"X. c #4B4D4B",
"o. c #484646",
"O. c #544545",
"+. c #574B4A",
"@. c #4A514F",
"#. c #454C54",
"$. c #4C4E54",
"%. c #465251",
"&. c #4D5455",
"*. c #4C565A",
"=. c #545853",
"-. c #53555B",
";. c #555A5E",
":. c #5B5B59",
">. c #585557",
",. c #634A44",
"<. c #675759",
"1. c #765E56",
"2. c #59615D",
"3. c #65615D",
"4. c #4C5761",
"5. c #5B5E63",
"6. c #555962",
"7. c #5D6365",
"8. c #636665",
"9. c #6B6B6B",
"0. c #786865",
"q. c #736C6C",
"w. c #7D6061",
"e. c #67706F",
"r. c #666A73",
"t. c #746C74",
"y. c #6E767D",
"u. c #7E7D7E",
"i. c #757473",
"p. c #836259",
"a. c #886B6C",
"s. c #976F73",
"d. c #997777",
"f. c #97797A",
"g. c #A27B7C",
"h. c #A67C7B",
"j. c #A6807D",
"k. c #747A82",
"l. c #887781",
"z. c #9B7E86",
"x. c #A67D85",
"c. c #8F8A8C",
"v. c #8E848A",
"b. c #9F838A",
"n. c #9F8996",
"m. c #8E9296",
"M. c #999797",
"N. c #AD8586",
"B. c #A68088",
"V. c #AB838B",
"C. c #AF888C",
"Z. c #A48688",
"A. c #A58693",
"S. c #A98694",
"D. c #AD8B94",
"F. c #B28A95",
"G. c #B48E9A",
"H. c #B58B97",
"J. c #A19493",
"K. c #A6969B",
"L. c #A7989C",
"P. c #B5919C",
"I. c #BA939E",
"U. c #B09994",
"Y. c #AF96A1",
"T. c #A69AA1",
"R. c #AD9FA1",
"E. c #B993A0",
"W. c #B596A3",
"Q. c #A6A4A4",
"!. c #A9AAAD",
"~. c #A2A5AB",
"^. c #B5ACAE",
"/. c #B9B7B0",
"(. c #BDBBB4",
"). c #B6B7BB",
"_. c #C299A5",
"`. c #C29CAB",
"'. c #C9A3AE",
"]. c #C3ADAE",
"[. c #CAA9B8",
"{. c #D0AAB7",
"}. c #D5B4BD",
"|. c #BBC1C2",
" X c #C0C6C7",
".X c #C6C4C7",
"XX c #D2D2CB",
"oX c #DCDEDB",
"OX c #DAC7CB",
"+X c #E8DBDE",
"@X c #ECE4E3",
"#X c #E3EBE8",
"$X c #EFF2EF",
"%X c #F6F9F6",
/* pixels */
"                                                                                                                                ",
"                                                                                                                                ",
"                                                                                                                                ",
"                                                        e e 0 4 5 5 ; ; ; , , > = = : : : :                                     ",
"                                            L x ~ { [ L H g f u 7 a s w 4 , % = * X X X % $ $ =                                 ",
"                                        h s n ` ' '  .] { ' I Z V f x g f i , > > : : % % % $ % %                               ",
"                                    5 3 h [ ] ~ U I I K G I ' ` Z C C F H f g x H g r : % % * X % %                             ",
"                                5 > 2 e [ K G Z x B f A K G G Z Z C x V H H F F v D P i ; O O O * % :                           ",
"                              ; > ; 2 F I x f f B B d a f f d u u N N V V H N g s f B N a 7 u , : % : >                         ",
"                            ; ; 2 = w F K g a a s f i 8 7 7 7 7 u a a s f a i < 7 < u d x V x f < > > & &                       ",
"                          = ; ; = ; 0 H I x g < 7 < , ; - , - - ; 7 0 i 7 7 < < < 7 u u a a < y i , = < 4 >                     ",
"                        > > = = > ; , g ~ U x i < , ; ; , ; , - < 7 7 < i 7 7 < 7 u u d 7 O * , < * * & > 4                     ",
"                      t > = = = : > > d U V f , < , , < < < < < 7 < < 7 i 0 4 i 0 a a < * # . , i ; * ; y i =                   ",
"                      > ; ; = = = = 2 d U V f u < u 4 , < r < 7 < 7 < 0 i i i y a a w , * O * $ * < > ; s i * X o               ",
"                    4 & = = = = = = ; < V V V i < 7 ; < < < i 7 < < < < i s i i s a < , - - * * . O 4 a 0 * * * . X             ",
"                    4 = = ; + = ; ; , < u g g a f g x p i i i 0 7 0 i i i s a a a g < , < 7 8 - # , i i : $ O O O O O           ",
"                    ; = ; = @ = ; > ; ; 4 i i u u i i i v s s f u 7 u u a x g g a i 0 ; < ; - - , < a , * % O O > ; -           ",
"                    > ; ; = ; 2 < ; 7 ; 0 a i , * * O - 4 0 i f f i f a g x K P V a i 0 < , - - > 0 d , : O * * , < < 0         ",
"                    = = = = = = 4 w < a F z a u * O O = , , , 0 a a x f x K G ' K s s w w 0 0 7 i s s w ; * O * = < 7 7         ",
"                h ; = = = = + 2 d v n F x s a u * = - ; 2 < > - 7 a n z Z ~ ' ! ! ! H p w a 0 p g g s w , : * * > < < 7         ",
"              b 2 ; = = = ; 4 p H K n f a 0 a , : : > 8 i i r , w a x x x K ' ~ U v g 7 ; 6 ; ; g N w ; < , * * * < < <         ",
"            s u 4 2 ; ; ; = i J L n z i < ; ; - , < - 8 4 4 i < 0 a x z g K ~ ~ v s 0 ; - + - - ; i g < * * * * = , - 7         ",
"            7 * , 2 5 ; 2 2 p k H v x x L L K z s v i ; , < u i a x H L v K ~ U z f 7 - - + - - = * ; 8 * $ * : = ; -           ",
"          x 7 * i & 4 2 ; 2 2 2 p x x x x n ^ ^ L s p 4 < u N C v K ! ! L L ~ ~ ~ F s 7 - - - - * * , , * : * * = 2 <           ",
"          s 0 : > = ; q 2 4 4 y 0 i 4 i a 0 0 s H v a 0 a f I ! ~ U n H U U H U U ~ I f 0 - - - - , = = , , * * O 5             ",
"        h w , , , = * 8 q 2 2 4 4 i w a a 6 6 7 a z x x x x x L } @.v C K U H L U ~ ~ K x 7 7 < ; , * , * * * = +               ",
"        w 7 * , 7 ; - ; e 5 2 2 2 2 ; w s a a i s n z x Z Z z a g z e m U ! U L L ~ ] ~ ~ f 7 < ; , = , > * * = =               ",
"      e 8 7 , 7 i ; + O 5 5 2 2 5 2 ; 2 0 7 7 i a z s z x z f w 0 6 w n U U U H K F L ~ I I Z u , = * , = = > : 2               ",
"      e e w 0 i u , , * 2 q 2 2 2 2 2 2 < > ; , 7 7 0 s x g w 8 2 6 8 a x F L K K K ~ U I I K K a , O - < 2 < < ;               ",
"        e i a a < , < , ; q 3 2 2 2 = = O = = = - - , 0 i w < ; ; ; ; 0 i s F G H K K K x N N H H F a 7 y i g d 4               ",
"        e p 0 ; * - 7 < O 5 3 2 1 2 1 = O O = O - @ ; ; < 4 < 2 ; 6 2 0 i s H H H J H v G G G H K U ' ~ I g g f i               ",
"        i p 0 - * * - , O 5 8 3 1 & 4 & + = = = - ; , ; 2 < ; < ; @ ; ; < f F x H H H J I I I K G x g g D H I P f               ",
"        8 e w - - O - * * 5 8 q 2 1 ; + + + + O = ; ; 2 ; 2 ; ; ; ; ; ; 6 f x x v F H K I I P H H g s s y < i B g i             ",
"        2 ; < 7 - - + * O 4 2 8 3 2 = + + = = = = ; ; = ; ; ; ; ; @ @ 8 a x x s v L U ^ { _ I K ' U D i i r t r i 0             ",
"          > * ; - - = O = 8 8 8 3 2 ; = @ O + ; 2 ; = ; = ; @ 1 1 @ 8 e x C x x F K L o.=.;.%.~ ~ U K N d d t r i a d           ",
"            @ ; 7 ; - = = = 2 q q 3 2 2 @ @ 1 3 2 2 ; 2 = ; 1 1 1 1 8 z F x x v v v H ^ =.7.7.%.]  .#.#.] ` f r r f a 4         ",
"                - - , ; = - = e q 9 3 8 1 3 3 9 2 2 2 4 = 2 1 2 1 1 ; e v x x v h j j H ] ] &.*.*.%.*.4.#.I S f i a i 4         ",
"                  < * = = > - ; q q 1 9 q q 9 1 5 2 4 2 ; 2 1 1 1 8 8 a x z x x g h h d Z G ] #.4.] _ P N r < u s g s 4         ",
"                        *       1 2 q 9 q q 3 3 q 5 5 2 5 3 1 1 1 8 8 8 z v v s p e p p f i 0 f G N N d i i < < d x g i         ",
"                                  2 2 q 9 q q 9 9 q 5 5 q 9 9 1 1 3 ; 6 z v K L v p e p 8 6 @ o ; s j g i r u i x ~ ' g         ",
"                                    2 ; 8 q q q 9 9 q q 3 q 9 8 1 2 ; < a x n L L v s e i 0 = + 2 p g j f a d N ] @.] H         ",
"                                      4 0 9 q 9 9 q q q 9 9 e 9 2 2 4 0 a s x v b b v p w 0 < 8 i j s s j b J _ @.=.}           ",
"                                        4 8 8 8 3 q 5 q 9 8 q q 3 5 0 p s s x H E L b x s i e p g j j g h H o.-.8.2.^           ",
"                                          ; - 6 0 0 e q q q 9 8 8 8 4 0 w i p h H ^ | | ^ c h s D J L b v U X.8.e.2.            ",
"                                              * , 2 8 e 8 e 8 e 8 8 8 7 2 7 0 i s H o.&.*.@.^ U U U U L L X.<.7.5.X.            ",
"                                                > ; 4 0 8 8 8 8 q 8 8 8 w 0 0 0 g K ' %.;.;.&...X.o.:.<.8.9.i.9.$.J             ",
"                                                  , @ @ 8 w 8 8 e e 8 0 0 p p p s v U ..*.5.6.6.8.i.c.L.L.M.t.X.E j             ",
"                                                    O O O 8 w 8 @ 8 8 8 q 0 p 0 e e v ' $.;.7.t.v.K.Y.W.P.D.x.+.s J             ",
"                                                      - * = 8 q 8 ; 8 q q q q p w q e j { >.t.l.A.Y.Y.W.I.I.P.b.O.w             ",
"                                                          , + ; h e @ 8 0 p p k Y ( O.<.a.z.A.S.D.G.G.G.I.I.I.P.f.k E           ",
"                                                              - 2 c c 0 4 < = W a.d.x.A.S.F.G.D.S.S.G.W.I.I.I.P.A.O.~           ",
"                                                                < < s h e = * l p.j.D.F.F.P.G.G.G.F.G.G.P.F.F.N.f.<.u.          ",
"                                                                    6 h b e ; o ,.h.C.F.F.G.G.P.P.G.P.I.G.F.B.s.w.(.#X          ",
"                                                                      6 c T b 0 ( g.N.C.C.F.G.H.F.G.H.H.G.G.F.P./.@X).          ",
"                                                                          a m T ) h.N.B.h.x.B.C.F.F.H.H.H.I._.'.OX$X#X          ",
"                                                                            7 e T 1.d.d.U.Z.d.B.D.H.F.H.F.I.`.`.K.Q.Q.          ",
"                                                                              H i 8 b 0.XX%X+X}.'._.E.E.I.'.[.A.c.Q.u.          ",
"                                                                                  U c l q.oX%X@X}.{.{.[.'.Y.T..X.Xm.9.          ",
"                                                                                      / l 3./.].K.J.R.^.T.!.|.~.9.b             ",
"                                                                                        ^ M Y R J..X).).!.m.k.r.{               ",
"                                                                                            +./ o.X.&.4.r.k.y.                  ",
"                                                                                                                                ",
"                                                                                                                                ",
"                                                                                                                                "
};
