/* XPM */
static char *_6d5f32d68294c25cb92096bbd4813199vFGp1zDdzxAfOy6[] = {
/* columns rows colors chars-per-pixel */
"64 64 82 1 ",
"  c black",
". c #000303",
"X c gray1",
"o c gray2",
"O c #070707",
"+ c #0C0C0C",
"@ c #1B0000",
"# c #1C0000",
"$ c #210000",
"% c #3B0000",
"& c #111F25",
"* c #002223",
"= c #062122",
"- c #062125",
"; c #072226",
": c #1F353A",
"> c #1A3839",
", c #243337",
"< c #283234",
"1 c #233538",
"2 c #22363B",
"3 c #27343A",
"4 c #24363A",
"5 c #23353D",
"6 c #28353B",
"7 c #2B363C",
"8 c #23383C",
"9 c #2B383C",
"0 c #2E3B3D",
"q c #303638",
"w c #2C3E41",
"e c #4E5B5E",
"r c #616A6B",
"t c #6C716E",
"y c #636D72",
"u c #676E72",
"i c #627373",
"p c #637577",
"a c #677575",
"s c #667477",
"d c #697276",
"f c #687476",
"g c #6C7475",
"h c #6C7477",
"j c #667478",
"k c #657678",
"l c #687478",
"z c #687679",
"x c #6C7578",
"c c #6B7A7C",
"v c #6D797C",
"b c #707878",
"n c red",
"m c #FF0909",
"M c #C13800",
"N c #FF5600",
"B c #FF5B00",
"V c #FF5C00",
"C c #FF6100",
"Z c #FF7100",
"A c #F8771E",
"S c #FC7524",
"D c #FFB600",
"F c #FFBB00",
"G c #FFBF00",
"H c #FFCE00",
"J c #FFCF00",
"K c #909F9E",
"L c #97A7A3",
"P c #98AEAB",
"I c #9FAEAA",
"U c #9FABAE",
"Y c #9CAEAE",
"T c #9DAFAF",
"R c #9FAEAE",
"E c #9CAEB0",
"W c #A0AFAC",
"Q c #A0ACAF",
"! c #A2AFAF",
"~ c #A2B1B1",
"^ c #A0B3B0",
"/ c #B8C1C2",
/* pixels */
"                                                                ",
"                                                                ",
"                                                                ",
"                                                                ",
"                           oo ..XXX.XXX                         ",
"                         OJJJJJJZASSSSVX                        ",
"                      O JGFFHNBVCVVVVVVBVO                      ",
"                       OGDDDDNBVVVVVVBBBM                       ",
"                       OCBBBBBNBCVCVVCBBVO                      ",
"                        .%%%%%$#@@@@@%%%                        ",
"                        XXXXXXXXXXXXXXXX                        ",
"                              X!~8X                             ",
"                              X!88X                             ",
"                          X...XXO O O O                         ",
"                        ..JJJJJJZASSSSV o                       ",
"                      OXJGFFGVVVBBVVCBVVVO                      ",
"                       OGDDDDBVVVVVVVBBBMX                      ",
"                        CVBBBBNBCVCVVCNBVX                      ",
"                       OO%%%%%$@@@@@@%%%.                       ",
"                         XXXXXXXXXXXXXXXX                       ",
"                        !LLLLyyyyy<,,,,<4X                      ",
"                  XXXXXXXXXXXXXXXXXXXXXXXXXXXXXX                ",
"                +O/////////////////////////////WO               ",
"                  !!W~~~!!!W~WW~TTTTYTTTTTTETTWT O              ",
"               OWaaaaaaaaaaazaaa12888888888888891oo             ",
"               XXXXXXXXXXXXXXXXXXXXXXXXXXXXXXXXXXXX             ",
"           XXXXXXXXXXXXXXXXXXXXXXXXXXXXXXXXXXXXXXXXXX           ",
"         OWTTTEETTTTTTEYTETTTWETTTTTTTTTTTTTTTWTTTTTW~o         ",
"         W!!XXXWETYYYYTYTTyyyyXXX&&;;;;;;;;-;;;;=*XXX;;o        ",
"        OWWTXXXT^TTTYYWTTTdzzaXXX,4:1::::222:2225>XXX2:fO       ",
"       O EXXnnnXvWWEYYWEfdffzXnnnXhddjaje7121222XXnnnXXf        ",
"        KzXXnnnXhfiWYYdaszzdzXnnnXhzfadjlzj22282XXnnmXXz O      ",
"        ^vhxXXXhrzdTTWdddzzfhhXXXhzddfzdzda222820qXXX062yX      ",
"       OYffxXXXzdddQYPzlffdfzzXXXpdzjffadlj2225524XXX222gX      ",
"       iiajjjzvjazjjssdzzdzzffzzyzzzzzzdzla422222444w215x XX    ",
"     OO41111181141,1114414444,4,1114141144442111544421114OXX    ",
"       XXXXXXXXXXXXXXXXXXXXXXXXXXXXXXXXXXXXXXXXXXXXXXXXXXX      ",
"       XXXXXXXXXXXXXXXXXXXXXXXXXXXXXXXXXXXXXXXXXXXXXXXXXXX      ",
"     XO4444,814411114411111444487411114411114121444444414OXX    ",
"     X iizfjjzvfzdzlfhzzzdzzzfzzyzllzzdzzza552225544w555v XX    ",
"        !ajxXXXfzdsQTPsszdfazlXXXizzdzddadj1222224XXX122tX      ",
"       OEvdzXXXhrzsTUYasfazdzdXX#hfdjdfzzda222220qXXX972uX      ",
"        KzXXnnnXbdiTTTadzdffxXnnnXhfazzjzzj22222XXnnmXXfXX      ",
"       OXEXXnnnXbU~TUTWWfdzzzXnnnXhfdzdae5122222XXnnnXXzX       ",
"         W~WXXXT^YTTYYYYETjdzjXXX6121:::525512:25>XXX51fX       ",
"        OWWWXXXTYYYTYYYYTTyyyyXXX&&;;;;;;;*;;;;;;*XXX;;.X       ",
"          TTTTTTYYTETEYYTTTTWTTTTWTTETYETWTTTTTWWEWTTWXX        ",
"          XXXXXXXXXXXXXXXXXXXXXXXXXXXXXXXXXXXXXXXXXXXXXX        ",
"           XXXXXXXXXXXXXXXXXXXXXXXXXXXXXXXXXXXXXXXXXXXX         ",
"               OWzffaaffaaaafzfa88818884888188802.X             ",
"               OX !!W!!!!!W~W!~WTTTTTTTTETYYTTTWXX              ",
"                +X/////////////////////////////WXX              ",
"                  XXXXXXXXXXXXXXXXXXXXXXXXXXXXX                 ",
"                       X!LLLLyyyyy<,,,,<1o                      ",
"                         XXXXXXXXXXXXXXXX                       ",
"                       .O%%%%%$@@@@##%%%X                       ",
"                       OBBBBBBNBVCCVVCBBB                       ",
"                       XGDDDDBVVVVVVVVBBMO                      ",
"                      OXJGFFJNBBCVVVVVBBV                       ",
"                        . JJJJJJZASSSSV X                       ",
"                          XX O O O O O                          ",
"                                                                ",
"                                                                ",
"                                                                "
};
