/* XPM */
static char *_5dd485db39b44b8cdeb55d2f29bafe8ybj8cb3GOSquPjyz[] = {
/* columns rows colors chars-per-pixel */
"64 64 13 1 ",
"  c black",
". c gray4",
"X c #392020",
"o c #373737",
"O c #432727",
"+ c gray28",
"@ c #990000",
"# c #F40101",
"$ c #E33900",
"% c #E37314",
"& c #9D8B7B",
"* c #EDCDB5",
"= c #F0D4BB",
/* pixels */
"                                                                ",
"                                                                ",
"                                                                ",
"                                                                ",
"                                                                ",
"                                                                ",
"                                                                ",
"                                                                ",
"                               ++                               ",
"                             ++XX++                             ",
"                            +XXXXXX+                            ",
"                          ++XXX&&XXX++                          ",
"                         +XXXX&==&XXXX+                         ",
"                        +XXXX&====&XXXX+                        ",
"                       +XXXXX======XXXXX+                       ",
"                      +XXXXX&======&XXXXX+                      ",
"                      +XXXXO========OXXXX+                      ",
"                     +XXXXOO========OOXXXX+                     ",
"                     +XXXOOO========OOOXXX+                     ",
"                    ++XXOOOO========OOOOXX++                    ",
"                    ++OOOOOO========OOOOOO++                    ",
"                    ++OOOOOO========OOOOOO++                    ",
"          ooo        +OOOOOO========OOOOOO+        ooo          ",
"        oooXooo      +OOOOOO&======&OOOOOO+      oooXooo        ",
"      ooXXXXXXX++    +OOOOOOO=====*OOOOOOO+    ooXXXXXXX++      ",
"    ++XXXOOOOOXXX++  +OOOOOOO&====&OOOOOOO+  ++XXXOOOOOXXX++    ",
"    +XXOOOOOOOOOXX+   ++OOOOOO&==&OOOOOO++   +XXOOOOOOOOOXX+    ",
"   +OOOOOOO+OOOOOOO+    ++OOOOO&&OOOOO++    +OOOOOOO+OOOOOOO+   ",
"  +OOOOOO+++++OOOOOO+     +OOOOOOOOOO+     +OOOOOO+++++OOOOOO+  ",
"  +OOOO+++O+O+++OOOO+     +OOOOOOOOOO+     +OOOO+++O+O+++OOOO+  ",
"  +OOO++OOO+OOO++OOO+   +++OO++OO++OO+++   +OOO++OOO+OOO++OOO+  ",
"  +OO++OOOO+OOOO++OO+  +OO+O+@@++@@+O+OO+  +OO++OOOO+OOOO++OO+  ",
"  +O++OOOOO+OOOOO++O+ +OOO+O+@@++@@+O+OOO+ +O++OOOOO+OOOOO++O+  ",
"  ++++OOOOO+OOOOO+++++OOOO+O+@@++@@+O+OOOO+++++OOOOO+OOOOO++++  ",
"  ++O+OOOOO+OOOOO+O++OOO+++O++++++++O+++OOO++O+OOOOO+OOOOO+O++  ",
"  +OO+OOOOO+OOOOO+OO+OO+OO+O+@@++@@+O+OO+OO+OO+OOOOO+OOOOO+OO+  ",
"  +O+OOOO+++++OOOO+O+O+OOO+O+@@++@@+O+OOO+O+O+OOOO+++++OOOO+O+  ",
"  +O+OOO++O+O++OOO+O++OOOO+O+@@++@@+O+OOOO++O+OOO++O+O++OOO+O+  ",
"  +OO+++OOO+OOO+++OO+OOOOO+OO++OO++OO+OOOOO+OO+++OOO+OOO+++OO+  ",
"  +O++OOOOO+OOOOO++O+OOO+++OOOOOOOOOO+++OOO+O++OOOOO+OOOOO++O+  ",
"  ++++OOOOO+OOOOO++++OO+  +OOOOOOOOOO+  +OO++++OOOOO+OOOOO++++  ",
"  ++O+OOOOO+OOOOO+O++O+    +OOOOOOOO+    +O++O+OOOOO+OOOOO+O++  ",
"  +OO+OOOOO+OOOOO+OO++      +OOOOOO+      ++OO+OOOOO+OOOOO+OO+  ",
"  +O+OOOO+++++OOOO+O+        ++OO++        +O+OOOO+++++OOOO+O+  ",
"  +O+OOO++OOO++OOO+O+          ++          +O+OOO++OOO++OOO+O+  ",
"  +OO+O++.OOO.++O+OO+                      +OO+O++.OOO.++O+OO+  ",
"  +OO+++OO.+.OO+++OO+                      +OO+++OO.+.OO+++OO+  ",
"  +OO++OOO+++OOO++OO+                      +OO++OOO+++OOO++OO+  ",
"  +O++O.O++%++O.O++O+                      +O++O.O++%++O.O++O+  ",
"  +++OOO.+%$%+.OOO+++                      +++OOO.+%$%+.OOO+++  ",
"  ++.OO++%$$$%++OO.++                      ++.OO++%$$$%++OO.++  ",
"  +OO.++%$$#$$%++.OO+                      +OO.++%$$#$$%++.OO+  ",
"   +.OO++%$$$%++OO.+                        +.OO++%$$$%++OO.+   ",
"   ++OOO.+%$%+.OOO++                        ++OOO.+%$%+.OOO++   ",
"    ++O.O++%++O.O++                          ++O.O++%++O.O++    ",
"     ++OOO+++OOO++                            ++OOO+++OOO++     ",
"      ++OO.+.OO++                              ++OO.+.OO++      ",
"       ++.OOO.++                                ++.OOO.++       ",
"        ++OOO++                                  ++OOO++        ",
"         +++++                                    +++++         ",
"                                                                ",
"                                                                ",
"                                                                ",
"                                                                "
};
