/* XPM */
static char *_5b18f0e0586470ac8d36d6fa3b7fa4eY2Cqacwe98UsilTA[] = {
/* columns rows colors chars-per-pixel */
"64 64 244 2 ",
"   c black",
".  c #3B343B",
"X  c #343B3A",
"o  c #38383B",
"O  c #422C3C",
"+  c #343C44",
"@  c #353D4C",
"#  c #3A394D",
"$  c #3D3546",
"%  c #373D53",
"&  c #393C56",
"*  c #393D5B",
"=  c #3E3651",
"-  c #293F5C",
";  c #3B3E63",
":  c #3D3F6C",
">  c #3F3F73",
",  c #412F41",
"<  c #42324A",
"1  c #423556",
"2  c #423A69",
"3  c #344459",
"4  c #324353",
"5  c #3A4264",
"6  c #3C436C",
"7  c #374969",
"8  c #32576D",
"9  c #3E4375",
"0  c #3C4A76",
"q  c #3E4579",
"w  c #3B4C7A",
"e  c #354679",
"r  c #36547C",
"t  c #39517C",
"y  c #35597E",
"u  c #365273",
"i  c #2F4C66",
"p  c #356476",
"a  c #444651",
"s  c #42424F",
"d  c #5A5D68",
"f  c #424476",
"g  c #41437B",
"h  c #444B7A",
"j  c #494D7A",
"k  c #47547E",
"l  c #4C4F75",
"z  c #5F6061",
"x  c #5C6576",
"c  c #4E6678",
"v  c #666B75",
"b  c #6A6C74",
"n  c #3E4D82",
"m  c #394988",
"M  c #3C5382",
"N  c #335D82",
"B  c #3A5C84",
"V  c #3A5B8C",
"C  c #3B578A",
"Z  c #3C5C93",
"A  c #3E5A95",
"S  c #3E4B95",
"D  c #326083",
"F  c #396489",
"G  c #3B6393",
"H  c #3B6498",
"J  c #3F68A4",
"K  c #424682",
"L  c #434B83",
"P  c #434D8C",
"I  c #465688",
"U  c #555C83",
"Y  c #464E94",
"T  c #435293",
"R  c #435A9B",
"E  c #465799",
"W  c #496887",
"Q  c #576788",
"!  c #5A758E",
"~  c #43629C",
"^  c #46759C",
"/  c #587796",
"(  c #4F728A",
")  c #65718B",
"_  c #677996",
"`  c #737E96",
"'  c #6D7084",
"]  c #485BA4",
"[  c #475AA7",
"{  c #4D5CB0",
"}  c #4E5FB8",
"|  c #515EBA",
" . c #515EAC",
".. c #4666A9",
"X. c #4575A6",
"o. c #5B78AD",
"O. c #4A63B3",
"+. c #4D64BA",
"@. c #4C6BBB",
"#. c #4969B4",
"$. c #5267BB",
"%. c #4976B8",
"&. c #5877B8",
"*. c #596CAA",
"=. c #6877A9",
"-. c #6879B3",
";. c #4E6CC3",
":. c #4F67C2",
">. c #516BC2",
",. c #536DCB",
"<. c #5768C5",
"1. c #4E74C3",
"2. c #4E7BC6",
"3. c #5373CB",
"4. c #5777C8",
"5. c #557CD5",
"6. c #5979D9",
"7. c #586DD9",
"8. c #6179D3",
"9. c #4F829E",
"0. c #77839A",
"q. c #6C8098",
"w. c #4887AA",
"e. c #4A85B5",
"r. c #5687B6",
"t. c #4D94BA",
"y. c #508EAB",
"u. c #798BA6",
"i. c #778AB6",
"p. c #6F8FAD",
"a. c #4F82C7",
"s. c #5285CC",
"d. c #5589C6",
"f. c #5499CA",
"g. c #5985DC",
"h. c #5787D8",
"j. c #5898D6",
"k. c #6A87C9",
"l. c #768BC8",
"z. c #6787D8",
"x. c #6796DB",
"c. c #7895DD",
"v. c #7291CF",
"b. c #56A6CA",
"n. c #5AA3D6",
"m. c #52ABC9",
"M. c #75A9CA",
"N. c #6BB0D4",
"B. c #5A85E3",
"V. c #5C89E9",
"C. c #5D98E6",
"Z. c #5F9CF2",
"A. c #6586E6",
"S. c #738DE9",
"D. c #6599E9",
"F. c #7999E7",
"G. c #6B95F5",
"H. c #5DA7E7",
"J. c #5EB6E0",
"K. c #67A4EB",
"L. c #7AA8EC",
"P. c #67B4EC",
"I. c #78B7E7",
"U. c #68A6F4",
"Y. c #7DAAF2",
"T. c #72B9F3",
"R. c #78C4E7",
"E. c #838489",
"W. c #888A97",
"Q. c #959599",
"!. c #86909F",
"~. c #818CA2",
"^. c #8996A7",
"/. c #989DA7",
"(. c #8994B5",
"). c #909EB3",
"_. c #92A0AF",
"`. c #9AA6B4",
"'. c #8EA0B5",
"]. c #A6ABB9",
"[. c #ACB2BB",
"{. c #B2B3B9",
"}. c #A2A7AD",
"|. c #8898D2",
" X c #93A8CC",
".X c #86AED5",
"XX c #88B5D7",
"oX c #94ADCF",
"OX c #A9B5C5",
"+X c #B2B5C1",
"@X c #B5BCC6",
"#X c #A2B3D5",
"$X c #889CE5",
"%X c #8AA8EB",
"&X c #86BBEC",
"*X c #86AAF6",
"=X c #98B9F6",
"-X c #91B5EE",
";X c #A5BCE7",
":X c #A2BAF6",
">X c #BDC3CC",
",X c #BAC7DA",
"<X c #87C7EA",
"1X c #97C7EB",
"2X c #98D4EE",
"3X c #8AC3F2",
"4X c #98CAF2",
"5X c #98D0F0",
"6X c #A7C6E9",
"7X c #B7C8E7",
"8X c #BBD5ED",
"9X c #A9C9F5",
"0X c #B9CCF6",
"qX c #ACD6F2",
"wX c #B4D2F3",
"eX c #C3C5CD",
"rX c #C4C5C9",
"tX c #C9CDD4",
"yX c #C4CBD4",
"uX c #C9D2DA",
"iX c #D2D5DB",
"pX c #D5D8DD",
"aX c #C4CDEA",
"sX c #CDD7E7",
"dX c #DADCE1",
"fX c #D6DCE9",
"gX c #C7D9F8",
"hX c #D2DCF6",
"jX c #C6CDF0",
"kX c #DEE1E4",
"lX c #DAE3ED",
"zX c #C9E3F6",
"xX c #DCEBF5",
"cX c #DEEBFA",
"vX c #D5E3F7",
"bX c #D4EBF3",
"nX c #E2E3E6",
"mX c #E4E6EA",
"MX c #E8EAEC",
"NX c #E1E5F3",
"BX c #E2EDFA",
"VX c #E9EEF5",
"CX c #E9F3F9",
"ZX c #F6F8F9",
/* pixels */
"                                                                                                                                ",
"                                                                                                                                ",
"                                                                                                                                ",
"                                                                                                                                ",
"                                                                                                                                ",
"                                                                                                                                ",
"                                                                                                                                ",
"                                                      NXNXkXpXNXBXvXdXmXyX                                                      ",
"                                              MXuX@XOX%Xc./ o.%X9X$X-.p.6XzXaXdXz                                               ",
"                                          kX@X^._ W O.H.b.D @.K.qX$XX./ 1X<Xz.0._.>XmX                                          ",
"                                      pX]._ W D D D w.H.2.G 3.I.gX=X6.&.6X4XC.G B Q u.>XmX                                      ",
"                                  mX@X0.W D y D y y y.I.2.#.A.gX0XU.A.V.*XvXL.J D N D &.|.eX{.                                  ",
"                                sX^.W D D D N r 9 9 u.9Xf.2.K.zXzXT.U.P.3XcX1X4.N r B 1.%.( #XBX                                ",
"                              aXv.N y D y r w 9 > 9 o.;X6Xx.4XcXcXqXR.R.zXCX0Xz.V 9 e ..+...b.XXpX                              ",
"                          /.@Xv.s.D D y r 9 > 9 r N #.Y.3X=XvXVXNX].( ( u.^.l.h.F y y N :.#.N.K.i.tX                            ",
"                          @X&.6.;.D y w 9 9 9 t w L %.&XqXsX{.b b c r m d.b.h.+.n y y D s.2.#XI.X.u.jX                          ",
"                        hXk.1.V.J N w 9 9 9 9 9 9 E x.wXfX}.s p ^ f.h.+.T M K q > 9 9 R h.&. X1X9.G |.xX                        ",
"                      BXhXS.5.V.[ w > 9 w 9 > > q H $XhXeXa e e.a.+.P f 9 > > > > > g | C.r.r.aXl.F o.0XE.                      ",
"                    VXxXqXU.U.D.;.w w q > > > > 9 ..%X7XE.3 C P 9 5 * : 9 > ; > q w w t.H.t.N.xX$X..2.=XVX/.                    ",
"                    gXBX2X<XoXs.2.M e 9 > > > > > ] *X#X0 u 4 & : : : > > > : > 9 9 I b.P.d.8XqXD.%.g.5XhXaX                    ",
"                  aX;XCXVX#Xo.B.{ q > > > : > > > S 6.s.[ R ; : : : : ; : > > : : q O.%X4XM.fXqXU.A.U.&XS.(.dX                  ",
"                eX X<XVX>Xb l.4.n 9 > > > ; > > > ; 7 T [ e > : @ X % * * : : * ; w +.S.wX9XcXcX<XD.*X9Xg.*.@X                  ",
"                yX$X9XdXz ! .X..q > > ; : : ; > : + @ ; > ; & @ % ; : > 9 > > > 9 T 5.U.zXBXCXZXzX3XwXgXG.<.~.dX                ",
"              E.`.z.7X/.a / f.C > > > : > > : : % X % ; % @ + * : > > : & % @ & 7 #.D.4XlX>XQ.Q._.,XCXcXT.1.( @X                ",
"              pXu.F.7Xx v ;Xj.C 9 > ; u 9 * 6 : + @ * + + + * : > & + + + X + ; 0 %.%X X` Q r 8 4 x Q.sXR.j.F ).mX              ",
"              @X/ D.7Xx ` 8XN.H > : * 7 6 * : + + * @ + # ; ; % * @ + X @ @ + % ; E $.y.a.3.h.n.J S I ` #XM.F _ pX              ",
"              `.F @.n.u E.lX;X$.w * ; r 7 * : @ % X @ = o o + o X % * # * * & * * 7 T T 0 t G h.H.V.B.; ^.,X..W >X              ",
"            nX~.N I 5.t.v @XjX4.M * ; [ T * ; % ; + . X X X . . . ; = X X + % * > : 6 : * * w ..j.H.j.w.b |.$.h ]./.            ",
"            iX` N V 5.C.r W.aXj.M * 4 { ] 7 : + + o . X . . O . o u 4 X X X X X * : : > : 2 3 ~ C.J.%.h.;.Y O.M ^.mX            ",
"            eX) D G g.Z.s.W p.N.Z * X 3 V w % + X o X . O O . . $ P a O . X X X + @ + + ; > K 4.&X;X*.6.,.m V r ` dX            ",
"            @XU N ..H.n.X.f.i.|.+.: @ 3 } L + & + . . . O O < $ 1 | g . X X . . # * @ X & 9 L z.0X|. .A.7.[ q k ) pX            ",
"            {.j N %.J.B.O.g.1.{ Y > * r :.L X X . . . O O O $ < 2 ] 5 O . . X . X & : @ X ; V S.hXXX%.H.5.n > f U iX            ",
"            {.f L &.1XN.%.V.;.C ; 9 t #.6.I o X O O O X . 1 = , f 0 @ . O O . X X % 6 * X % N 8.:X6Xz.H.n.F 9 w U tX            ",
"            +Xf C 6.*X6X&.D.,.9 * 9 C 5.<.3 X X O O O 1 * * 3 < [ Y # . . O O X X + ; 6 % 4 V 5.T.0XS.U.m.I 9 t W iX            ",
"            {.k V 6.&X:Xr.P.j.w ; i O.V.*.% . . o O , 1 1 5 5 < $...3 , . o . o X X * 9 ; : :.K.5XvXF.U.I.$.q w ! pX            ",
"            rXQ I z.9XL.%.j.m.y 3 3 1.U.X.4 X . . . < 2 , L I <  .@.L = O X o . X X @ ; > q 3.-XgXBX%X5X0X<.g f ` pX            ",
"            tX_ H F.gXI.e.Y.XXW ; 8 f.H.X.4 X X . O 1 ; + L T 1 h :.Y # O X X . X X X * > K 8. XlXCX4XqX:X<.q > ~.kX            ",
"            dXu.@.*XxX<Xx.3X:X$.w y m.j...7 + X o O 1 w 1 f t 3 M s.] + . X X . + & 4 + : g ,.b.`.MXCXhXS.J t f `.MX            ",
"            kX).,.-.lX5X3XvXY.;.D G b.P.%.0 # X X o j [ 6 E #.t @.C.X.4 . X X X X * * X * f T 1.~ Q.nXNXk.N M h {.              ",
"              OXz._ rXzXzXbXT.5.~ $.%X4Xr.n + X . o + h I  .7.] f.H.^ 3 X X . X X & ; @ ; > V 5.g.f W.dX-.m D Q tX              ",
"              tXv.w.x tXZXZX4XU.5.5.U.9X$X] 3 + X o o T { E 6.{ b.C.1.n @ % X X + ; > * ; 9 V V.8.(.' }.W y D u.dX              ",
"              mX^.w.i b MXZXcX5XU.G.R.8X=XJ 3 + X X 4 ] O.f 1.@..X&Xg.P @ @ + X % 9 9 * ; 6 O.V.S.;Xd > ..D F [.                ",
"                +XQ [ U E.E.{.fXwX<X7X[.x.~ + + # 5 w #.@.u d.a.l.9X$XA 4 + * @ : > ; * : 5 $.K.*XhXz m ,.G _ uX                ",
"                dX0.~ 2.G 8 a z d W 9.M.s.T > 9 : : R $.h F b.t.M.gX%XJ 3 * & * > > ; ; 9 9 P s.R.yXd A B.#.`.nX                ",
"                  {.U R s.y.e S R e.f.1.R q > ; ; 4 ..5.u y.H.z.;X=XA.O.w ; > > > > : > > > N 6.XXc 3 e.5._ tX                  ",
"                  nX~.f w t V O.@.~ 9 g f > > ; * w 3.3.M M.*XA.0X2XC.6.A 9 > > > : : > > 9 V S.aXv r j.&.].E.                  ",
"                    eX! 9 9 9 q > > : > ; * : > > ] g.] I  X4XG.jXzX&Xh.A 5 > > ; ; > > > > +.D.(.Q 3.,.~.dX                    ",
"                    d [.Q 0 9 > > > > > : : > > : ~ V.+.] A.9X4X4XxX'.B.,.K > > > > > > > n :.j.H t.4.=.eX                      ",
"                      mX_.W y 9 f > > > > > > > 9 J Z.3.{ D.0XwXbXdX0.B.,.K > > 9 q > > > 9 M H #.G Q [.                        ",
"                        dX^.F N t f > > > > > f t X.H.n.3.P.zXxX>X0.9.g.R 9 > 9 9 w > > q q g [ I U ].MX                        ",
"                          pX^.k r y t 0 w r t e Z ,.C.J.U.3XbXtXb 7 j.%.n q w 9 9 > > w t 9 t y U ].mX                          ",
"                            dX/.k w w 9 w w w A 3.6.K.<XwX@XE.x i %.6.H r 9 q 9 > 9 > 0 9 9 y ! ].nX                            ",
"                              mX].U f w r q L ,.B.N. Xc v x e > y.s.] g 9 > 9 9 w w > > 0 k q.>Xz                               ",
"                                E.eXW.U 9 f K { w y T m - R ,.| ~ C w w 0 9 9 r t 9 9 w Q ).iX                                  ",
"                                    nX+Xq.I t M t G #.J D N M r t y N t w 9 f f g w W ^.eXnX                                    ",
"                                        kX@X0.( F D D N N N N N N r w 9 > 9 f k Q ^.>XmX                                        ",
"                                            MXuX].0._ ( U k k w w h j k Q _ W.+XpX{.                                            ",
"                                                  _.pXeX+X`.).^.)._.].@XtXnX                                                    ",
"                                                                                                                                ",
"                                                                                                                                ",
"                                                                                                                                ",
"                                                                                                                                ",
"                                                                                                                                ",
"                                                                                                                                "
};
