/* XPM */
static char *f8f7a0a1cbe449a1fe4500a4f6221465inUZfEzRplF29wJ1[] = {
/* columns rows colors chars-per-pixel */
"64 64 11 1 ",
"  c black",
". c #060609",
"X c #171736",
"o c #D7022F",
"O c #986600",
"+ c #FF7800",
"@ c #D49100",
"# c #E49C00",
"$ c #414185",
"% c #6D6DD3",
"& c #B3B3C3",
/* pixels */
"                                                                ",
"                                                                ",
"                                                                ",
"                                                                ",
"                                                                ",
"                                                                ",
"                                                                ",
"                                                                ",
"                                                                ",
"                                                                ",
"                                                                ",
"                                                                ",
"                                                                ",
"                                                                ",
"                    ...                 ...                     ",
"                   .ooo.               .+++.                    ",
"                  .ooooo.             .+++++.                   ",
"                   .....               .....                    ",
"                     .                   .                      ",
"           ..........................................           ",
"           .&&&###&&&&###&&&&###&&&&@@@&&&&@@@&&&&OO.           ",
"           .&&###&&&&###&&&&###&&&&@@@&&&&@@@&&&&OOO.           ",
"           .&&###&&&&###&&&&###&&&&@@@&&&&@@@&&&&OOO.           ",
"           .&###&&&&###&&&&###&&&&@@@&&&&@@@&&&&OOO&.           ",
"           .###&&&&###&&&&###&&&&@@@&&&&@@@&&&&OOO&&.           ",
"           .###&&&&###&&&&###&&&&@@@&&&&@@@&&&&OOO&&.           ",
"           .##&&&&###&&&&###&&&&@@@&&&&@@@&&&&OOO&&&.           ",
"           ..........................................           ",
"           .%%%%%%%%%%%%%%%%%%%%%%%%%%%%%%%%%%%%%%$$.           ",
"           .%%%%%%%%%%%%%%%%%%%%%%%%%%%%%%%%%%%%%$$$.           ",
"           .%%%%%%%%%%%%%%%%%%%%%%%%%%%%%%%%%%%%$$$$.           ",
"           .%%%%%%%%%%%%%%%%%%%%%%%%%%%%%%%%%$$$$$$$.           ",
"           .%%%%%%%%%%%%%%%%%%%%%%%%%%%%%%%$$$$$$$$$.           ",
"           .%%%%%%%%%%%%%%%%%%%%%%%%%%%$$$$$$$$$$$$$.           ",
"          ..%%%%%%%%%%%%%%%%%%%%%%%$$$$$$$$$$$$$$$$$..          ",
"          .%%%%%%%%%%%%%%%%%%%%$$$$$$$$$$$$$$$$$$$$$$.          ",
"          .%%%%%%%%%%%%%%%%%$$$$$$$$$$$$$$$$$$$$$$$$$.          ",
"          .%%%%%%%%%%%%%%$$$$$$$$$$$$$$$$$$$$$$$$$$$$.          ",
"          .%%%%%%%%%%%$$$$$$$$$$$$$$$$$$$$$$$$$$$$$$$.          ",
"         ..%%%%%%%%%$$$$$$$$$$$$$$$$$$$$$$$$$$$$$$XXX..         ",
"         ..%%%%%%%$$$$$$$$$$$$$$$$$$$$$$$$$$$XXXXXXXX..         ",
"        ..%%%%%%$$$$$$$$$$$$$$$$$$$$$$$XXXXXXXXXXXXXXX..        ",
"        ..%%%%%$$$$$$$$$$$$$$$$$$$XXXXXXXXXXXXXXXXXXXX..        ",
"       ..%%%%%$$$$$$$$$$$$$$$$XXXXXXXXXXXXXXXXXXXXXXXXX..       ",
"      ..%%%%$$$$$$$$$$$$$$XXXXXXXXXXXXXXXXXXXXXXXXXXXXXX..   .. ",
"  ... ..%%%$$$$$$$$$$$XXXXXXXXXXXXXXXXXXXXXXXXXXXXXXXXXX.. .... ",
" ..X...%%$$$$$$$$$$XXXXXXXXXXXXXXXXXXXXXXXXXXXXXXXXXXXXXX...X.. ",
" .X...$$$$$$$$$$$XXXXXXXXXXXXXXXXXXXXXXXXXXXXXXXXXXXXXXXXX...X. ",
" .X..$$$$$XXXXXXXXXXXXXXXXXXXXXXXXXXXXXXXXXXXXXXXXXXXXXXXXX..X. ",
" .&X...XXXXXXXXXXXXXXXXXXXXXXXXXXXXXXXXXXXXXXXXXXXXXXXXXX...X&. ",
" .&&XX......XXXXXXXXXXXXXXXXXXXXXXXXXXXXXXXXXXXXXXXX......XX&&. ",
" .&###XXXXX......XXXXXXXXXXXXXXXXXXXXXXXXXXXXXX......XXXXX&&&O. ",
" .###&&&##XXXXXX.....XXXXXXXXXXXXXXXXXXXXXX.....XXXXXX&OOO&&OO. ",
" .##&&&###&&&##XXXXX....XXXXXXXXXXXXXXXX....XXXXX@@&&&OOO&&OOO. ",
" .#&&&###&&&####&&&XXXX...XXXXXXXXXXXX...XXXX&@@@@&&&OOO&&OOO&. ",
" .XXX###&&&####&&&&###XXX..............XXX&&&@@@@&&&OOO&&OOXXX. ",
"  ..XX#&&&####&&&&####&&XXXXXXXXXXXXXXXX@&&&@@@@&&&OOO&&OOXX..  ",
"   ...XXXXX##&&&&####&&&&&@@@@@&&&&@@@@@&&&@@@@&&&OOOXXXXX...   ",
"     .....XXXXXX####&&&&&@@@@@&&&&@@@@@&&&@@@@&&XXXXXX.....     ",
"         ......XXXXX&&&&@@@@@&&&&@@@@@&&&@@@XXXXX......         ",
"              .....XXXX@@@@@&&&&@@@@@&&&&XXXX.....              ",
"                  ....XXX@@&&&&@@@@@&&&XXX....                  ",
"                     ....XXXXXXXXXXXXXX....                     ",
"                         ..............                         "
};
