/* XPM */
static char *_180828ebf1b4b05ff69b6a1d1687452jabe2wdaW4ICFm3b[] = {
/* columns rows colors chars-per-pixel */
"64 64 117 2 ",
"   c #020101",
".  c #0A0504",
"X  c #070907",
"o  c #0C0906",
"O  c #060609",
"+  c #090609",
"@  c #07090A",
"#  c #0B0A0B",
"$  c #130504",
"%  c #190705",
"&  c #130A06",
"*  c #190B05",
"=  c #110608",
"-  c #140C0A",
";  c #190D0A",
":  c #0E100B",
">  c #14110C",
",  c #1B110D",
"<  c #0E0D11",
"1  c #120E11",
"2  c #0E1013",
"3  c #131113",
"4  c #121114",
"5  c #121117",
"6  c #121216",
"7  c #131316",
"8  c #151214",
"9  c #151317",
"0  c #141417",
"q  c #191313",
"w  c #1B1412",
"e  c #1D1916",
"r  c #161418",
"t  c #161419",
"y  c #16151A",
"u  c #19161A",
"i  c #1B171E",
"p  c #161818",
"a  c #19191E",
"s  c #19191F",
"d  c #1D1A1C",
"f  c #1E1B1C",
"g  c #1C1A1F",
"h  c #1E1C1C",
"j  c #1E1C1E",
"k  c #240E05",
"l  c #231306",
"z  c #2A1505",
"x  c #2E1804",
"c  c #24120C",
"v  c #28130D",
"b  c #221513",
"n  c #2B1413",
"m  c #201813",
"M  c #221914",
"N  c #221916",
"B  c #291A14",
"V  c #211718",
"C  c #231C1C",
"Z  c #211C1F",
"A  c #221E1F",
"S  c #291E1C",
"D  c #341E1F",
"F  c #362008",
"G  c #292016",
"H  c #26201D",
"J  c #29211D",
"K  c #332416",
"L  c #33241D",
"P  c #191820",
"I  c #1C1A21",
"U  c #1F1F21",
"Y  c #1D1C22",
"T  c #1F1F26",
"R  c #211C22",
"E  c #201F23",
"W  c #231E22",
"Q  c #221F27",
"!  c #1E2022",
"~  c #1E2025",
"^  c #202023",
"/  c #252223",
"(  c #202026",
")  c #282223",
"_  c #2B2423",
"`  c #2B2326",
"'  c #292427",
"]  c #2A2627",
"[  c #2C2424",
"{  c #2D2725",
"}  c #2D2426",
"|  c #2E2826",
" . c #232328",
".. c #242228",
"X. c #252329",
"o. c #26242A",
"O. c #292629",
"+. c #2A2728",
"@. c #29242B",
"#. c #2E272B",
"$. c #2C292A",
"%. c #2D292A",
"&. c #2F2A2B",
"*. c #2B282F",
"=. c #312524",
"-. c #382420",
";. c #312926",
":. c #3C2C25",
">. c #322B29",
",. c #2B2830",
"<. c #2E2C32",
"1. c #312D34",
"2. c #313031",
"3. c #45352B",
"4. c #494035",
"5. c #4D453F",
"6. c #514B47",
/* pixels */
"                                                                                          - ;         . . & X                   ",
"                                                                                          ; % .       .   . .   O               ",
"        O O       O O O O O O O O O + O O O .   O + O + + o O 6 6 6 6 9 p 9 # O           & * .         . & o X                 ",
"      O 6 < < # O O < 6 0 0 0 6 8 8 8 6 2 8 3 8 - 8 1 9 u 0 p +.+.T  .o. . .9 O           - ; .           . .                   ",
"      6 6 O                                     O       O     o.,.^ Q ..o.o.P O           ; $           & o o                   ",
"    O i P O                                                   ^ *.Y ..o.o.+.a O           - $             .                     ",
"    O i R +                   O                               Y *.Y ^ @.@.+.Y             ; =           . .       O             ",
"    O a Y O               O   O     . . . O                   Z $.! ! ' ` ` g +           - o     . . & , e , o O               ",
"    @ P R O               # w +     . $ & e &                 Z $./ / +.+.+.h             ; &     . . $ , m , o                 ",
"    O P ^ O               o 1 #     X o & , $       .         R $...) } _ $.h X           * $         . o & o .                 ",
"    O P ~ @               + + # O   o & & . .     , K o       H >.W ) } _ +.h @           ; o         . . o o                   ",
"    O Y ^ #             O + + #       . . .   .   $ $ X O     R >.[ W [ _ _ h             ; $             O X   O               ",
"    O Y Q #                   + @     . . . . o   $ B , .     C >.W ) { =.) C O           * $           O O                     ",
"    O Y  .O                   O 3         . .     ; -.b O     H >.S H =.L { C             ; *           . .                     ",
"    O Y  .#     . .           O 9     O         c w X = O     J >.C G J { { M .           ; $         . . .                     ",
"    O g T #     . . .   O     O q     . . . o . G ,     O     / =.B { _ J J e o           ; %           . .   O                 ",
"    O Y ..#     .             . w     $ - - q $ , B $ . O     H | J J _ { J m .           ; %             o                     ",
"    O Y Q .                   o 9     - + - b o $ L , . O     / ;.H J L { _ M o           ; % .         . . .                   ",
"    O P  .O             O O   . -   O - . o - o - :.c X @     S | H J { { | h             - % .       . . X                     ",
"    O Y Q O               .     >     -   $ $   , 3., X X     C ;.J J { | ;.C .           ; c $           X O                   ",
"    + Y Q +                   O :     < . = $   , 4.w o X     C ;.G J { $.$.R O           ; n %         .   .                   ",
"    + Y  .@                   . :   O 6 O + #   w 4.w o X     C =.H J _ { $.R @           , c $     .     .                     ",
"    O Y  .O         . , & O . o @     - . . # O p 5.w   O     H =.S ) { $.$.R             , c $         .   .                   ",
"    O Y T O         o e -   - o o O O 1 O @ #   p 6.8   @ O   C #.C ' $.$.*.Z O           b , .           .                     ",
"    O i t         . % - X   & o . .   1 O O o   p 6.m   - <   / >./ ' $.$.$.^ +           w ;             . X                   ",
"    O 6 @         $ k *     - - $     - O . O O p 4.C . 6 @   / 2.o.o.$.' | C O           b c .       . . o                     ",
"    O < < O       $ x k   o > > &   . 1 . + .   q :.c O : @   / 1.' / { J { h             b ,           o .   O                 ",
"    O < 9 O       o z z   o & & o     1 + +     , K .   O .   / <.^ ^ { ' $.Z .           b , .       X X   .                   ",
"      < P #     . . * c   X , - $     1 . .     ; L       @   ^ <.~  . .$.+.h             V c           o O                     ",
"    O < < @     .   $ ;   X w w -   O 1 . + O   c :..   O .   / *.~ | ' ' | h O           C M .           .                     ",
"    O < O       O . $ *     - & @     - O O     B L *         ^ >.o. .' _ _ e           O C M .     O     X     O               ",
"    @ P <         . . $               1 O . .   , L *     O   H $.o./ _ { { M X   O       Y M .         O . O                   ",
"    O Y T O           .             . 1 . o .   l L o   X X   / >._ / $._ _ C             Z M .         . o                     ",
"    O Y o.@     # . $ ;     * .       1 O o .   b J       X   H | / ' +.| | C       O   O Z b .         . .     O               ",
"    O Y Q O     o . l F $   $ .     $ 1 . o >   G G     O O   / >.) ' +.' _ C     O @     C S .         o X X                   ",
"    O Y  .+     . % x F l   - .     ; 1 . + 8 o > , . X O     / >.' ) | _ _ m X   O 9   O g D %           . O                   ",
"    O P o.O     . $ z l - o o .     ; ; + - w # O   .         _ >.^ _ | _ _ h     O O     W D %         . @ @                   ",
"    . Y ^ O     . $ * & ; o o *     o = > q w .   o o         ^ | H ` | { { M .   O       W S .       . O .   O                 ",
"    + Y ^ +     . . . * $           .   # 8 o @   o &         H >.) _ ' { { h #   O O   . ..B .         O . O     O             ",
"    + P R +                 . .   . .   + 1 + .   . o O       / >.J ) { _ ' M     O O   . C V .           .                     ",
"    O P o.O       O O   X       . - o     . O   O   # @       C >.) ) _ { { M     O       W B           . .                     ",
"    O Y Q O     . o               - @           . . o         H >.{ J { { $.R O   O O   . W C .           o                     ",
"    O Y T O     $   X     O         . = .       . .           H ;.) _ | $.{ C X   O O     W M       . $ * , & X                 ",
"    O Y T O   . . X O               o + . . >                 C $./ { $.{ { Z       O     S B .         . .   o O               ",
"    O Y ..O       .                 o       o ; . $ % .       / >.` ` $.{ $.Q O     O     C V                                   ",
"    O Y ^ +     O . X   O           &         .   * n * *     H >.) _ _ { { M O           C b .         O .                     ",
"    O P ^ @       . X               o   .         . $ $ $     C $./ J [ { ` Z .     O     C B .                                 ",
"    O a Q O     $ o           .     $   .   .   .             Z $.J ) { #.{ f             M B .           .                     ",
"    O P Y O     $ &       O       . o   . . $           .     H $.) ) ) ` +.h X           M v $                                 ",
"    O Y  .O     * o X   .           &                   o     H ;.S ) [ J _ M             w v $         .                       ",
"    O P T +     . o .               &       .         - :     R >.S ) { _ _ C O           b , .           .                     ",
"    O Y Q O         O   O         O o               . X o     C >.S G ' _ | C             , -             .                     ",
"    O Y o.+       O O     O       . o               . X       H >.C B J _ ' f X           q ;           .                       ",
"    O Y o.O       .       o O . o . $ .                       H $.C J _ _ _ h             , ;           .                       ",
"    O g Q O O       O   . # o . o . .                         C >.C J J _ J M O           , ;             .                     ",
"    O a T O       o . O . # + . .                             C =.J _ _ ' B e             , *             .                     ",
"    O Y Q O                                                   H >.~  .' J J M O           , &                                   ",
"      i a O                                                   ! <.o. .+._ ) e             8 -           .                       ",
"    . 6 0   O             O                                   ,.<. .o.+._ { V O           , -                                   ",
"      # 1 < O + O O < 6 1 6 t 1 - 6 6 2 2 6 6 6 6 6 6 6 6 6 t 1.<.+.*.$.$.$.Z .           - $             o       O             ",
"        + # @ # O O < < < < < < # < < < # < < < 1 < < 1 2 < 0 Y h h ! h Y ! p             ; &                                   ",
"        .           O     O   O                                     O O   O O             q -                                   ",
"      . . .                                                                               q -                                   ",
"        .                                                                               . w =                                   "
};
