/* XPM */
static char *ed5cffdf7a0543709ecf788a6c545ea71lcX75Vsvr5mWFjZ[] = {
/* columns rows colors chars-per-pixel */
"64 64 218 2 ",
"   c #010101",
".  c #0B0403",
"X  c #0D0905",
"o  c #070708",
"O  c #06090C",
"+  c #0C0C0A",
"@  c #120503",
"#  c #180702",
"$  c #130B06",
"%  c #1A0C04",
"&  c #140D09",
"*  c #1A0F0A",
"=  c #0F100A",
"-  c #1B1106",
";  c #15120D",
":  c #1B130C",
">  c #1C180E",
",  c #0F1211",
"<  c #141412",
"1  c #1C1512",
"2  c #171915",
"3  c #1D1A14",
"4  c #1C1C1B",
"5  c #240E03",
"6  c #251406",
"7  c #2A1505",
"8  c #22140B",
"9  c #2A160A",
"0  c #23190D",
"q  c #291A0D",
"w  c #311707",
"e  c #341D0E",
"r  c #231711",
"t  c #231B14",
"y  c #2A1D13",
"u  c #251D1A",
"i  c #291F1B",
"p  c #341C13",
"a  c #1D201F",
"s  c #34210D",
"d  c #242014",
"f  c #2B2316",
"g  c #24221C",
"h  c #2B231C",
"j  c #27281E",
"k  c #2D281E",
"l  c #352216",
"z  c #3A2417",
"x  c #33241B",
"c  c #3A251C",
"v  c #342A1D",
"b  c #3B2A1D",
"n  c #3D301D",
"m  c #1E1E20",
"M  c #1F2221",
"N  c #242423",
"B  c #2C2622",
"V  c #262825",
"C  c #2C2A24",
"Z  c #232428",
"A  c #25292A",
"S  c #2C2C2C",
"D  c #322622",
"F  c #332B24",
"G  c #3B2D23",
"H  c #342E29",
"J  c #3A2F2B",
"K  c #2E302E",
"L  c #3C3225",
"P  c #34322D",
"I  c #3A3529",
"U  c #3B332C",
"Y  c #282D30",
"T  c #2F3132",
"R  c #2E3438",
"E  c #343433",
"W  c #3C3631",
"Q  c #363832",
"!  c #3C3A35",
"~  c #35363A",
"^  c #363A3A",
"/  c #3B3C3B",
"(  c #432D1C",
")  c #492C1E",
"_  c #46311C",
"`  c #422E22",
"'  c #492C22",
"]  c #433124",
"[  c #4B3524",
"{  c #443827",
"}  c #4F3927",
"|  c #43342B",
" . c #4B362B",
".. c #44392D",
"X. c #4C3A2C",
"o. c #513625",
"O. c #523927",
"+. c #51362D",
"@. c #533C2B",
"#. c #423732",
"$. c #433B33",
"%. c #4B3C33",
"&. c #443E3A",
"*. c #4B3D3A",
"=. c #533E33",
"-. c #593F33",
";. c #3E403F",
":. c #54402C",
">. c #59412E",
",. c #454034",
"<. c #4B4236",
"1. c #4C4837",
"2. c #43423D",
"3. c #4C433C",
"4. c #4F493E",
"5. c #544235",
"6. c #5A4434",
"7. c #5A4836",
"8. c #54443B",
"9. c #5B463B",
"0. c #554A3D",
"q. c #5C4B3D",
"w. c #5D503C",
"e. c #644A36",
"r. c #624C3C",
"t. c #3A3D41",
"y. c #3D4142",
"u. c #444444",
"i. c #4C4542",
"p. c #464846",
"a. c #4B4944",
"s. c #46474A",
"d. c #464A4A",
"f. c #4B4C4C",
"g. c #534B43",
"h. c #564A45",
"j. c #5B4C42",
"k. c #534D4A",
"l. c #4D504F",
"z. c #565146",
"x. c #5B5246",
"c. c #54524B",
"v. c #5B544C",
"b. c #5F584D",
"n. c #4C4E51",
"m. c #4F5151",
"M. c #535454",
"N. c #5B5551",
"B. c #555857",
"V. c #5B5A55",
"C. c #565958",
"Z. c #5B5C5C",
"A. c #624E41",
"S. c #665446",
"D. c #6B5544",
"F. c #64544A",
"G. c #65584B",
"H. c #6D5B4B",
"J. c #735C45",
"K. c #725B4D",
"L. c #645C54",
"P. c #6B5D53",
"I. c #685B56",
"U. c #625D59",
"Y. c #715F53",
"T. c #5E615F",
"R. c #76624C",
"E. c #676057",
"W. c #6D6254",
"Q. c #64635D",
"!. c #6B625C",
"~. c #726155",
"^. c #796657",
"/. c #74645C",
"(. c #7D6D5B",
"). c #5A5C60",
"_. c #636463",
"`. c #6A6662",
"'. c #666965",
"]. c #65696A",
"[. c #6C6D6C",
"{. c #736A64",
"}. c #726B66",
"|. c #7A6C63",
" X c #6E706F",
".X c #75716D",
"XX c #7C736C",
"oX c #6C6E71",
"OX c #6F7271",
"+X c #737473",
"@X c #7B7672",
"#X c #767978",
"$X c #7B7B7B",
"%X c #886C55",
"&X c #8A735C",
"*X c #86766E",
"=X c #937964",
"-X c #8D7E72",
";X c #827D7A",
":X c #7D807F",
">X c #988168",
",X c #8C827D",
"<X c #988577",
"1X c #9F917F",
"2X c #7E7F81",
"3X c #7F8281",
"4X c #838484",
"5X c #898987",
"6X c #8C8C8C",
"7X c #958B85",
"8X c #8D908F",
"9X c #9B918B",
"0X c #929292",
"qX c #9B9B9B",
"wX c #A19386",
"eX c #A2A2A2",
"rX c #AAAAAA",
"tX c #C3AF9F",
/* pixels */
"=X_ >.O.>.>.>.@.[ X.X.X.# c ( %X%X%X=XJ._ o.7.:.{ 6 P.5.%.] U D t b.$.%.%.8.*.3.*.#.*.%.9.j.5.6.e.e.e.X.X                       ",
"<X( >.e.5.[ 5.:.( :.:.X.# l } >X=X>X%XJ.o.O._ } _ e K.@.9.X.J * B 3.: u u C t i D u r i i i i u i p q f { ] 6 l l 5 9 7 q 8 y y ",
"%X:.6.7.7.@.@.r.w.X._ 7.s :.^.R.J.R.D.e.o.O.O.O.' w D.p z c - o & u                                     v X._ [ @.@.e.-.| X.<...",
"9.X.@.@.@.7.9.=.q.D.7.D.5.7.>._ O.>._ [ o.o.>.>.[ ) r.8 . X   o . $ . . . .   . .   . .   o   .   . v q . X 7 6 5 7 5 5 % 6 8 % ",
"L 7 s ] z r.H.H.r.A.<X<X5._ X.:.r.6.+.7.H.D.D.R.^.D.tX%X[ b v v $.I W ,.W U U W $.U $.W i         - 0.,.5.:.w.:.' ( e ` b | L | ",
" .. # c . ] 9.j.=.6.wX-X:.<.8.@.9.=.[ 5.H.S.7.7.H.r.1X(.:.{ :.1.4.,.<.,.$.W $.&.2.$.a.3.N           ,.0.7.,.w.G.r.=. .j.v.S.%.0.",
"5.. . G . ` 5.5.b G wX-X%.] X.5.j.=.=.r.Y.D.r.S.R.[ <XR._ :.;.;.,.,.1.,.,.W U $.$.W i.$.1           v 0.0.:.L 7.8.X.%.j.0.0.$.q.",
"5.# . c . 6 y r .   |.-Xj...j.5.9.%.j.F./.F.~.H.H.8.1X(.n :.:.,.1.0.1.......$.,.$.$.v.3.1       % k ..1.1.5.v v G i l y x v | g.",
"<.- . .             % y 0 * * @ 8 | 8.F.|.Y.~.W.J.1.1X(.w.H.W.x.w.b.b.0.v.z.0.b.z.z.z.v.&.< u H 4.b.b.b.W.0.5.g.X.| *.%.$.*.0.j.",
"x.8 - 8 > % % : 8 * $ :   - 8 *.j.W.I.h.=.%.%.{ { 0 w.n n L 1.v j ,.I n I I I ,.I $.I W #.W J E I W ,.,.z.L L 4.U U *.&.i.*.%.$.",
"XX$.$.z.g.,...,.0.$.4.g.% *.8.7X9X9X<XW.| *.8...{ f 0.n n ;.,.v d b.;.,.$.0.&.&.$.i.3.2.&.u.i.*.3.4.0.z.L.4.0.b.3.3.L.F.3.4.4.3.",
"*X$.W $.$.U W ,.k.3.g.g.$ 3.z.7X,X9XqXXX$.*.g.8.1.I w.1.,.:.z.,.n {.1.,.3.k.h.k.3.c.h.h.i.h.h.k.c.b.G.E.,.- X $ . . $ + . . . . ",
"N.P P g u g C F F C P U ; F ,.$...z.E.z.$.P U H F G $.I J W H h > z.$.P U U J W H W D ~ J D J ~ ! I v k X               .       ",
"3 & u $ X > : 1 : d u g u g k > $ - > - y - - : - 3 u 1 t i u % X f r $ X * 1 i 1 1 & 1 u B i 1 > > d f v k 3 > 1 < & & 1 % $ % ",
"3 X : ; : 1 : 1 1 H g u N C k d - $ X - - - > r : i t u u B h : > ; d t : 1 1 t 1 u * 1 * * 1 1 > d d f t h j 1 3 1 + g v $ ; % ",
"P $ $ $ X ; 1 g h P h 1 g $.,.G v > : d 1 k i t 1 u u W / J H u o t U C h i 1 r B B u 1 & 1 D D t f > - h $.h h g 1 X U x.> t : ",
"v g u u - $ k 4.P D C.$ g u.4X/ B.1   i g.3.D G t * i L.J ~ A * $ 3.b.! J S 1 B j.`.D k.- i 1.a.k r d > F E.k D T.>   8.4Xd a.E ",
"D h h P 1     V.,.P C.O N c.N.Z.M.u.$ D v.j.U #.r   S F.Z A Y & $ *.].4 s.S : W 8Xi.Z.U.2   1.4.g C r u   :XI U n.m   g.4Xv ^ N ",
"k U H ..t o   U.2.W B.O   M.2Xf.m.u.& m 8XG.S $.4 . V 5X~ / E & & s.v.A k.m   ! 6XV.M.N.m   C.:XC g /     #X/ l.I N   u.2XS / S ",
"H $.W W 3     V.p.p.B.o   a.[./ u.H   T qX_.8.u.2   K +XC S A   3 h.U.T u.m   N rXM.s.V.4   OX4XK M.u.    $X;.;.f.N   m.0XS p.^ ",
"2.P U 2.u     N.p.l.B.+   M.4Xc.f.S   m 6XoX^ *.<   E $XS P u & u T.+X/ M.S   S rXs.u.M.4   +X6XT l.Q     6Xa.l.W Z   f.$XT M.E ",
"3.U P ! 4     #Xf.;.l.o   d.OXu.t.S   < +XZ./ a.,   S oXS E S     T.c.K u.S   Z qXH E ~ +   OX6XK d.T     ].;.;.Q 2   / $XH f.T ",
"Q a.Q P 3     OXl.p.C.,   d.OXp.s.E   4 2X_.f.Z.m   K $XE u.T   1 f.#XS s.T   S eXW / S     ].3XA l.K     _.T ;.^ a   n.0XE s.E ",
"! 2.! C <     #XT.m.Z.O   u.4Xf.f.C   4 0X@Xf.B.m   E 3Xu.k.!   X h.;X~ M.K   K eX/ / S O   Z.OXS l.Q     3Xy.;.d.V   k.4XN s.E ",
"i.! 2.P M     _.f.p.B.o   p.]./ s.S   N 0XoXu.C.m   T $X~ u.S o X a.U.I f.N   N eX~ E E +   M.[.A m.Q     #X;.^ p.M   M.qXS y.E ",
"p.2.p.! V     '.d.y.M.O   u.[.^ s.&.  m 2X_.s.N.4   T +XK / T     C. X^ f.S   < 0XT E m.4   B.[.V d.K     OX^ ;.y.M   f.4X4 E E ",
"Q Q B.f.A     #Xl.;.p.    f.+X;.s.~   < @X_.E u.+   N +XS / H o   V.+Xt.n.S   , 0XS K k.4   f.].A d.K     :Xp.p.y.4   / @XZ t.S ",
"/ T.T.p.V     #Xf.;.m.o   l.+X;.M./   4 6X_.S f.<   N $X~ f.S o   u.[.u.M.E   N eX;.E u.2 o t.T.K C.;.    6Xa.;.l.a   p.5XS ^ S ",
"d.B.T.B.K     ].d.y.T.=   l.OX;.f.^   4 5X_.H u.<   Z $X~ k.^     H Z.t.Z.W   m qXu.~ u.<   m.#X^ M.^     6Xl.d.f.a   u.4XC / S ",
"p.f.m.B.Q     C.y.f.T.O   l.#X;.f.W   4 4X_.T s.<   N #X~ n.E     M.+X;.M.T   N qXu./ u.,   T.8Xp.B.^     8Xl.d.l.N   d.$XZ / S ",
"B.M.l.l.T     T.f.d.T.o   M.:X! u.T   4 4X_.E m.2   N +XH u.V     Z.+XE u.m   < 8Xu./ / O   T.8Xy.B.;.    8Xm.d.f.M   u.@XZ ;.T ",
"d.y.^ / V     ].f.y.M.o   B.4X^ t.H   4 4X_.t.Z.m   N [.Z / S     M.[.S u.V   4 5Xu.u.u.<   T.5X;.T.^     6Xl.d.f.M   s.$XZ t.H ",
"l.d.y.^ N     ].y.^ m.O   M.$X~ / S   2 2X_.;.V.m   N [.Z / K   o _.@XE u.N   & $XW t.;.;   _.4X^ C.;.    5Xf.p.s.a   u.4XS / S ",
"t.y./ t.M     ].^ R m.O   M.oXE ~ Z   4 ;X_.t.C.4   N oXS u.K     T.oXS t.Z   , +X~ u.s.2   [.6X^ B.;.    4Xs.y.p.2   u.6XS / S ",
"y.^ R R M     ].s.y.y.O   s.].E / P   < @XC.E p.4   m `.N E E     f.[.T / V   < 4XS ~ S o   V.$XQ d.!     ;X2./ ! :   / ;XZ u.T ",
"d.t.R t.A     ].n.y.t.O   f.oXE &.E   < @XZ.H 2.3   i Q.N E E     M.oXS ~ S   4 0XE / E +   f.'.K c.2.    7Xa.i.u.t   p.6XS u.E ",
").n.y.s.R     oXn.t.~     d.oX~ &.E   3 $XT.C / <   V [.E 2./     m.[.T u.S   N 0XE ^ E ;   ;.V.C N.2.    7Xk.a.i.i   i.2XN &.K ",
"n.s.y.y.A     ).^ R R O   / B.E / E   4 ;XQ.S ! <   < N.< S u.    `.+XS s.Z   4 0XS S E +   ;.T.V d.;.    $X&.&.$.1   u.4Xm ~ Z ",
"n.n.M.n.Z     C.Y A R     T p.K / P   3 ;XQ.C P +   3 V.4 J /     n._.T u.4   4 0XP A Q +   ;.l.j 2.;.    @X$.! W :   &.4Xm / S ",
"n.M.M.n.S     oXn.E Y     p.'.H W H   2 $X_.C P ;   B [.Q a.2.  o _.[.E u.N   < 0XQ K ^ =   Q 4.a 2.P     $X,.&.&.1   i.4XC ;.E ",
"n.t.! p.S     M.C j K .   Q p.V P C   < $XQ.C Q ;   3 Q.j Q P     &.V.E W 4   X 6XH S Q .   ;.c.2 P N     ;X/ &.&.t   a.5XS f.E ",
"u.E K Q C     M.Q P K     K c.F 2.P   ; .XN.C P +   C [.S W E     N.Q.E / 1     `.E N N     ;.Q.g K g     .X&.J J 1   &.;XB &.W ",
"P W Q g a     T.1.;.P     C '.W f.$.  ; Q.2.a P X   I #XP H N     N.N.B ! 1   . k.W i u =   ;.'.C 2.V     U.W i m 1   W ;XS $.E ",
"p.! Q K j     T.;.a ;.o   K [.Q P P   + !.a.g P ;   C Q.j g :     i.k.B W u   1 ,XB t H =   ;.c.j y.H     a.u H J t   W ;Xi W H ",
"2.Q I Q j     c.j a I .   P T.K g d   = `.z.a H =   j V.4 3 $     W k.h J g   . 6XH B B .   I p.a ;.P     a.* B U &   H ;Xu W B ",
"4.Q C Q g     I > a P     k z.j a a   = Q.a.a j o   j v.1 1 :     J k.1 B h   . ,XD B 1     K a.j ;.K   . {.B N H .   J @Xu #.D ",
"1.P C Q a     ;.k g C     H Q.j d 3   > c.;.> > o   d z.> 3 t     J 3.& i g   $ @X: : 1 o   C p.C ;.C . & +XJ 1 *     H U.u W J ",
"F C F I k   k ,.I j j > - j z.j j d = d ;.n a d > X a ;.= d 1 . . H H $ i g * 1 N.& $ r $ . a Q P ;.C ; u N.N 1 $ $ $ B #.u H H ",
"I ;.L ,.P u I k k v y h I f k F g h V k u C h t C u > C X g 1 1 i B r & i B H r S B t & : 4 1 N P ;.k j B D X u   1 1 1 1 g j B ",
"n F v L x x v % % f f 8 0 8 h F g & 0 g C 1 + % g - %   . $ . t * . < .   . + & # & . . . . X : a j d > & o     + 1 < & 1 < : ; ",
"x l q q q l q # 6 q 8 # . % - h u r N i > . . $ $   X   $ # . * X @ & @ . . . . @ + $ .   . . $ : t 1 ; $ + X o o o $ ; > > 3 2 ",
"v.L H L J | F h F U c U - ] F F D 8.v.h.G h f i h y $.G i u D D i #.i F D D D J J #.U J U U H F H P F B : $ $ .   . o .   . X . ",
"XXU #.i.8.U #.8.*.i.#.h.* J t j.h.`.|.F.G G | | f * U G J #.U D D h.D *.*.#.| %.*.*.*.*.3.k.*.&.&.*.&.*.t .   . @ $ @ . # $ . @ ",
"@XU U &.W H H i.i.$.H i.$ H f I.G./.Y.j.i c D G y 5 ..G c %.c t t 8.p J #.] J | %.%.*.*.*.&.^ W W $.#.| $.| G ] X.=.@.=.j.A.j.9.",
"i.N r r & & & 1 1 . . :   $ * J ` %.=.| G ] | ..G l j.] q b | c p *.J ` *.%.#.%.=.*.=.%.$.&./ W $.$.W D G G ` ' ` ' +.-.+.+. .%.",
"B 1   .             . 1 &   . @ 5 y ` | 5.=.9.-.| +.*X~.] %.=.*.| %.*.| 9.j.j.j.j.j.9.h.*.u g C / *.&.| *.=. .[ o.O.O.+.' ' +.+.",
"W @ . H   1 1 :     k.L.W u J G ` G  .%.9.] =.h.j.=.-X/.G l y l c x ` c G ] $.%. ...%.] t       . r J ] | ' z ( [ @.o.) ) ' ' +.",
"i.@ . &.  i.i.#.i h ;X{.J D U %.` b ` =.A. .=.F.F.-.<X^.` c b b | ` | ..| | 3.9.X.*.9...r         . F ....| [ @.e.e.e.6.-.-.+.-.",
"i.*   D % 8.%.H F $.,XXX*.J J  .` G ] 5.j.8.j.j.8.8.7XY.G G %...| ] | $.*.$.8.0.<.<.g.%.h         . H $.%.X.%.@.+.=.-.=.-.A.-.-.",
"#.q # G J j.U | | | *X|.J G %.%.J G  .*.*.=.8.j.F.F.,Xj.c G L H B F F U ..L U #.U U U L r         & #.3.%.$.%.| b l z z p ` ] #.",
"%.c G %.5.9.| ] ..b L | c | c | G G #.$.| $.| #.*.y #.#   .     . X     .   . .     .     .       . u h r r y r * % - 8 8 8 * 8 ",
"F. . .| %.=.8.| |  .c p 6 =.S.{.I.I.I.k.U | F H J - $.F h 1 $ X   3                                     1 B F J H U W W J S h J ",
"(.( +.'  .[ @.=. .b `  .@ e 8.{.`.`.{.c.F H U U D 1 i.&.! U C N > E > + ; < < 3 3 2 < 3 3 $ : u u u h 1 h S V u 4 3 < ; > ; ; : ",
"&Xe X.[ @.' b ( [ [ ) O.7 z ( `.I.{.@XI.W W W W W J v.#.U W S C 2 ;.V K ;.^ E ! ^ E P ^ &.W &.k.i.&.2.J o                       "
};
