/* XPM */
static char *_abfc27589fe42f9f56e6ca0a1681d8eFnfBJmAlTXbviXrD[] = {
/* columns rows colors chars-per-pixel */
"64 64 195 2 ",
"   c #060606",
".  c #080705",
"X  c #0A0906",
"o  c #0C0B0A",
"O  c #140E05",
"+  c #130E0B",
"@  c #161206",
"#  c #1B1305",
"$  c #1F1805",
"%  c #15120C",
"&  c #1A140B",
"*  c #1D1A0D",
"=  c #151413",
"-  c #1A1611",
";  c #1D1A14",
":  c #181718",
">  c #1D1D1C",
",  c #221603",
"<  c #251B05",
"1  c #2B1D04",
"2  c #231D0B",
"3  c #2A1F0B",
"4  c #21150B",
"5  c #221D14",
"6  c #281D13",
"7  c #211E1A",
"8  c #311F12",
"9  c #1F201E",
"0  c #262007",
"q  c #2B2306",
"w  c #26210C",
"e  c #2B230C",
"r  c #2E290C",
"t  c #332404",
"y  c #3A2603",
"u  c #352B05",
"i  c #3B2B04",
"p  c #33270A",
"a  c #342C0C",
"s  c #392F09",
"d  c #3D3205",
"f  c #36300C",
"g  c #3C340B",
"h  c #3E380F",
"j  c #242114",
"k  c #2A2514",
"l  c #2D2915",
"z  c #23221C",
"x  c #2A251B",
"c  c #27281D",
"v  c #2D2A1C",
"b  c #322D14",
"n  c #3B2C15",
"m  c #342718",
"M  c #322E1C",
"N  c #382F1D",
"B  c #363114",
"V  c #3B3413",
"C  c #3E3814",
"Z  c #35311C",
"A  c #3A351B",
"S  c #3D391B",
"D  c #1F1F20",
"F  c #201F20",
"G  c #1F2020",
"H  c #232422",
"J  c #2A2621",
"K  c #272822",
"L  c #2B2B23",
"P  c #272929",
"I  c #2B2B2A",
"U  c #312E22",
"Y  c #332F2B",
"T  c #2F3022",
"R  c #2F302B",
"E  c #333122",
"W  c #3A3621",
"Q  c #3C3923",
"!  c #33322D",
"~  c #39372D",
"^  c #3D392F",
"/  c #2D3131",
"(  c #343433",
")  c #383735",
"_  c #373834",
"`  c #3A3A36",
"'  c #373738",
"]  c #363939",
"[  c #3C3D3B",
"{  c #422E02",
"}  c #433405",
"|  c #483604",
" . c #443906",
".. c #493C06",
"X. c #423609",
"o. c #443A0C",
"O. c #493E0C",
"+. c #513B03",
"@. c #503E08",
"#. c #413510",
"$. c #443C13",
"%. c #493E11",
"&. c #423D1B",
"*. c #423E21",
"=. c #423D2E",
"-. c #433D30",
";. c #403F3E",
":. c #3E403D",
">. c #4D4106",
",. c #4C420D",
"<. c #504207",
"1. c #5B4D06",
"2. c #52450C",
"3. c #58430B",
"4. c #554A0D",
"5. c #5A4D0C",
"6. c #5E5306",
"7. c #5D510E",
"8. c #464014",
"9. c #4B4314",
"0. c #4F4916",
"q. c #46411C",
"w. c #4B441A",
"e. c #4E491B",
"r. c #514612",
"t. c #544A14",
"y. c #594D13",
"u. c #504719",
"i. c #544C1A",
"p. c #584F19",
"a. c #5C5214",
"s. c #56511B",
"d. c #5B521A",
"f. c #62530E",
"g. c #655A0C",
"h. c #6A5F0E",
"j. c #615512",
"k. c #645913",
"l. c #6A5D13",
"z. c #625519",
"x. c #64591A",
"c. c #676011",
"v. c #4A4422",
"b. c #4A4429",
"n. c #504627",
"m. c #575020",
"M. c #5B5421",
"N. c #444033",
"B. c #42413E",
"V. c #494639",
"C. c #625A22",
"Z. c #695F25",
"A. c #716724",
"S. c #3F4042",
"D. c #434442",
"F. c #4A4A46",
"G. c #4C4D49",
"H. c #51514D",
"J. c #555555",
"K. c #575956",
"L. c #56595D",
"P. c #5A5B5A",
"I. c #5F5F5C",
"U. c #5B5C5A",
"Y. c #5F605E",
"T. c #5F605E",
"R. c #60615E",
"E. c #60615E",
"W. c #5D5F61",
"Q. c #5D5F61",
"!. c #5B6163",
"~. c #5D6364",
"^. c #626360",
"/. c #646562",
"(. c #656562",
"). c #636567",
"_. c #666665",
"`. c #646463",
"'. c #676865",
"]. c #686A66",
"[. c #686A66",
"{. c #66676A",
"}. c #64676A",
"|. c #63686A",
" X c #66696B",
".X c #656C69",
"XX c #65696A",
"oX c #686A6A",
"OX c #6B6C6E",
"+X c #6B6B6C",
"@X c #6D6E71",
"#X c #6E7173",
"$X c #6E7173",
"%X c #747677",
"&X c #7C7D7E",
/* pixels */
"P P L I G.;.B.:.[ B.G.K.(.(.[.E.`.^.T.E.(._._._.I.[.[.(.E.^.K.K.I.I.E._.E.T.E.(._.^.I.^.I.I.J.H.F.B.:.:.D.F.P.(.(.[.E.G.Y P P I ",
"H > > H ( ( ! I R ! ! ( ` [ D.[ D.[ ` ( [ ` ] ( I ~ ! ` ` ' [ ) B.[ ( [ ] ! ! ! ( Y ) ) ` ( ( ! I R I R Y ~ ! ` [ D.[ ] z > > z ",
"= + = - H H H F 9 .X&XK P I I P Y ( P H P P K H oX&XH P K P P I ! I H H G G H $X%X' F F 7 P z z 9 G 9 9 oX&XH P P I P H = = = = ",
"= = = = H z z > ; I ~ z > I z z L I I H z L > z ! J H : Y F F I R I z K ! > z E J I F J H H > : = z 9 ; Y Y F > I z z z = = % = ",
": = o = ( ( [ ( I H - ( P ;.[ [ ( I ' ' [ [ ( / z 7 ( I S.S.' ' Y / ] ] [ / ] j : Y ( S.' ' P D 9 [ ( P H ; / P S.[ [ Y = o = > ",
"( / ! [ +X+XoX_.Q.S.Y P.!.OX|.$XoXoX{.@X@X{.).J.;.( P.).@X{.OX{.}.}.}.}.).L.I.[ Y L.).{.OX@XQ.J.D..X}.Q.S.Y Q.Q.OX|.$X+X[ ! / ( ",
"X     X % + + o o o o + + % % % - - - % = - - = % - - - : - % % + + + + - - - = = = + + + - + + o + O o o o + + = o % % X     X ",
"= = 9 H Y x 4 - - & % - 4 ; ; > 7 6 7 6 5 7 x 5 x m x J x m 6 8 6 6 - 6 x 7 x 6 8 6 7 5 5 6 4 4 % ; % - & % - 4 ; - 7 ! H > : + ",
"- : G H ` 5 # @ O 1 , # O O # t y t t , $ 4 3 y } | < < 4 1 y { y , O O @ 1 t i y & # & 1 t 1 # X # @ O 1 , # O O # q ` H H : - ",
"= : F H ! * # 1 1 t 1 O # O 1 t 1 y q 3 3 u { y } l 3 l V O.| +.t , # 4 y u { s & & 4 1 t y 1 X X # 1 q t , O @ & 1 t ! z 7 : = ",
"- : 7 z Y 5 u u y t # O @ 1 y t 1 e * 2 p | o.| l l b n r.@.+.y 4 1 , | } i e & @ 4 y t t t @ O @ y t y 1 # @ @ 1 i t Y H j : - ",
"; : > 7 ( k } d y & O O $ t q 1 # * ; a } ..{ 3 b b p 9.....a @ 4 , { { { 1 * & & t t y y 4 @ & 1 } { y $ O @ $ q q q ! G > : : ",
"> > > 9 _ k d t 0 # @ < < q q @ & 5 V O.$.O.3 4 - A O.8.9.b 3 # 3 y t | a 4 * 5 X.p q s 6 j 2 i q d u 0 # @ < 0 q 0 # ` 9 > > > ",
"> : : D ( T e * * @ u u 0 0 @ # * C 2.4.O.b 6 k #.3.y.Z.S x x p <.o.X.V 5 j k C &.o.k l k l f g u e * * $ u t 0 < % & ( G : : > ",
"H > > > ( P @ 2 * q s t 0 @ @ j $.5.2.9.V x v X.@.+.5.S v U A 3.1.O.V j z b $.$.$.B 5 M b o.o.C r ; * * q u r 0 $ & 2 ( D > > G ",
"P 9 > G _ P % 2 q 0 u r % & w f $.9.%.v c v w.2.O.+.N M U &.t.4.7.b 5 x b 9.r.9.&.x k l %.o.o.l 9 ; 0 q q u r @ @ w B ( > > > P ",
"H > > D ( P & a r 0 r @ % @ 0 f f f w c c 9.y.t.0.M x v S 5.y.f.S j > b 5.9.4.&.c c l C 0.8.Z j j e f r 0 r @ % * q u _ 9 : 9 9 ",
"H > > 7 [ Y i d f 0 & % * r r r f j j c C 2.y.0.Z Z M &.y.j.j.Q L z A c.g.7.C v x k C e.8.Z x z k f f u e % * % q q q :.9 9 9 G ",
"P F F H [ E d u e @ & & r u q r l l j 8.0.8.0.Z Z Z &.a.a.k.S v v S l.k.a.C ; v l 8.V w.B v z l B f s e % % $ a a q r ~ H 9 G P ",
"H > > H ] T s w % % % f q u r j B b h a.i.e.A Z E q.i.i.d.M K P q.a.x.d.S x x Z C $.,.A c c v B f h r * % * s r u r 9 :.G 9 9 K ",
"H > > z ` ! q % % - g  ...r ; x c V 8.0.e.S S T W i.i.i.M L L &.s.i.i.Z v v A 0.9.0.C Q E W S q.C B w ; w g  . .a ; x [ 9 > 9 H ",
"P z H P [ P % & 2 f ....g k j v w.w.8.&.Z T T S w.i.q.T L J Q d.s.s.W T c Z 9.0.t.S x v.v.s.s.8.V l j e s  ...f j 5 v [ P H G K ",
"K H P I [ P * * } d g f w j k $.9.9.8.Z T T e.s.i.i.v L Y S s.v.s.A K T S w.w.8.S v x S w.9.9.S l k k f d g g w j k $.[ I P H P ",
"H D H P :.R w  .f  .a 2 j l r.2.8.S l M T w.s.0.i.I T P w.d.a.s.E L L W s.w.8.Z Z v A i.w.9.A v c l f g d a 5 j b 2.2.;.P H D H ",
"F F H P :.I u d h f j ; l O.2.u.S v v L q.e.e.S L L v q.i.p.s.U z H A i.w.e.B M E S a.i.v.Z v c l f h g B j - l ,.,.u.;.K H F H ",
"H D D H [ ! d >.a j j k f o.%.&.z x v w.q.e.w.W E L &.q.w.i.v J K q.w.q.w.A M E q.s.i.i.Q H K l $. . .a j j k g o.8.&.` H > 7 H ",
"H D > H [ R d s k 5 r h o.o.C x j x w.e.&.*.L U E v.s.e.q.E L H S q.w.q.Z E T w.l.g.a.q.W L Z ,.o.o.s k w r o. .o.C x [ H F D P ",
"P > > 7 ` ~ e j w w f ,.,.f j k x ,.a.i.S v L v i.i.v.q.x U U w.a.s.i.T Z Z q.a.a.a.W L L A y.0.8.B l k r f 8.,.s j x ` > > : P ",
"F = > F ( Y 2 k l } h o.B k k l 2.a.t.&.v L M 0.a.d.&.c z J y.k.a.s.W E E &.0.s.z.W T E S t.u.0.A l k f g h o.b l k l ) H > = F ",
"o = > > ( / w B  .d h b l l l C 8.a.&.M v L i.4.t.e.L K L q.i.i.r.Z L ! w.a.4.0.M L E q.a.i.t.b v l f o.} g B l l k $.( > > : o ",
"o = D D ( P s .. .f w j j l h $.0.&.v x Z a.a.5.8.J L v &.e.i.q.W ~ Q M.Z.d.9.k c L w.d.i.a.A M v V o. .f j j j l h $.( D > = o ",
"  = : D ( Y  ...o.l j ; V ,.h 9.S v M A k.l.g.$.z L L q.i.i.w.U M M i.l.x.i.x j v &.d.e.i.Z l M b o...o.l 5 5 B ,.o.w.( > : =   ",
"  = H H ` ! g >.e : ; b 1.9.u.C M U Z i.j.k.t.c z v n.u.p.w.U U W w.z.A.C.U j c e.d.e.i.W L Z A o.o.o.k ; ; b 1.r.r.A [ H H =   ",
". = F H [ E } w - - s ,.,.a.V v c Z i.k.g.w.J v N i.w.w.&.L K U i.s.d.C.-.E c $.a.i.$.M v M A t.9.$.k ; * b @.,.7.A M ) H 7 =   ",
"X = D H ` E ; ; * k o.>.4.V x x N y.y.p.w.c z m j.j.t.w.H J U i.d.m.q.b L U e.y.i.w.z L v A 9.8.q.l j j r o.>.4.B c x [ H F = X ",
"  : D H [ ( 2 2 r o.,.3.Z j x C t.O.y.&.v v Z y.j.y.&.H H U p.y.k.w.L M U w.u.p.u.v v U &.0.8.e.M x l f o.,.2.Z z k S [ H D :   ",
"  = D H ` ! j l $.<.<.k j j C t.y.d.N U V.b.y.j.j.9.z J E y.i.p.w.~ E m i.z.t.t.U c L w.e.w.e.Z x l V o.O.O.k j 5 V y.` H F =   ",
"= : > > ` I s h ..2.k j j C 2.t.z.n.m x W y.y.5.&.x H M s.r.i.9.N E E p.x.z.t.v L v r.d.y.i.M v v $.$.o.o.p j j #.4.t.[ F > : = ",
"= : > H _ ! d g <.k 2 x C 3.6.3.M 7 J b t.r.a.A M U W d.e.t.w.M U W i.i.y.q.6 7 H e.a.z.i.v v v &.8.O.o.k 6 k $.2.1.3.( z H : = ",
": = > H ( I i  .j ; j V ,.4.4.Z z 7 S &.9.9.S J M W p.d.p.q.z L M e.i.w.&.z : z e.r.t.e.M U v $.9.,.o.k j k V o.2.t.Z ( D > = : ",
"> : > G ( I u 5 j j g ,.o.o.l l 7 V r.%.9.M z c Q a.d.s.v.z 6 N e.p.i.&.z 7 5 0.y.y.&.E E v 8.y.t.o.e 5 k B o.o.o.b k ( G > : > ",
"> : > > ( I % * 5 g o.o.>.l k k $.2.t.i.A 7 z N a.r.a.&.L c n p.y.5.&.H 7 c $.r.a.y.v U v r.y.t.8.l ; w B o.,.o.l x k _ > > : > ",
"> : 9 H ( I * 9 f g >.o.l j k 8.5.,.r.b J x Z w.y.r.E 8 L Z g.a.a.%.H H c 0.%.r.w.Z v U t.y.t.$.k ; j V o.o.$.b k k 8.( z > : 9 ",
"G : > z ` ! 2 g t.9.2.k j ; o.a.5.8.l c M S p.d.j.S H v A j.f.y.w.z J v 0.t.r.8.v M b y.t.t.8.l j j V o.8.$.b k j $.7.] G > : G ",
": > H P F.` $.o.o.C x 9 j V 1.6.7.l x z A t.4.t.&.v c S a.j.5.&.J z M w.t.i.S v v v t.t.t.$.v x j B C o.$.b k x V 5.f.D.P J > : ",
"- 7 H P :.-. .>.,.z x Z &.8.8.i.M j k $.4.O.2.N Z v &.y.f.j.S M J Z i.d.y.w.v H v w.2.9.,.5 > j B C ,.8.B x M S 8.o.t.;.P H > = ",
": > z K G.^ g 8.; j M $.$.S V l c x C k.7.2.A v M V i.j.t.&.M M Z 4.i.q.&.U v Z 8.8.9.q.j j x B 8.9.8.V k v $.o.&.C v G.K F > - ",
"= D P I F.! f 5 ; 5 $.8.C V x ; z 8.3.i.2.b x M $.i.a.p.A z x S i.y.a.A J J A C.i.$.S z z v C 8.9.8.B k 5 $.8.C V z 7 D.I P D = ",
"o : F H [ ! w ; k o.4.t.V j j x V 0.2.t.l x x 8.a.i.i.Z L x b e.0.w.Z L H Z e.s.i.$.z x M 8.t.r.9.C k j o.2.t.V z j z [ z > > = ",
": > H H [ ! * j h ,.r.%.5 z j 8.0.7.9.l x k o.5.7.w.Z c z n %.8.8.Z j z Z i.%.8.A k z v 9.5.5.r.C k j V ,.9.8.j j j 8.:.K G > : ",
": > F H ` R * C 8.O.o.c x c A $.w.i.B v l C 0.t.8.Z x z A S $.$.l L z M w.w.0.Z z k x y.2.t.u.S x k f 8.,.o.x x x V 8.[ H H > : ",
"P > F H :._ f 2.t.C j H x $.C B S x k v C ,.8.8.Z x v S y.$.&.z z M A S 8.&.Z v M M 2.t.t.0.A c x f 9.r.C 9 x z $.C B :.H D > P ",
"[ F 7 H [ ! o.i.C k 9 c 8.,.$.l x x k 8.r.,.%.M Z B C e.t.8.v 7 x Z i.m.i.Z L x A 8.2.4.$.b c v C o.0.C j 9 x 8.r.C b [ H > H [ ",
"P I H H [ !  .$.j : j V o.r.A z c l C 4.2.$.Z b v $.8.s.t.b v j B w.s.M.b.v l Z 8.8.,.C x v M #.o. .C j ; 5 V 8.2.Z j [ H H I P ",
"P > 7 H D.N.g z j ; B B f l ; c x C ,.7.2.l B &.8.r.y.a.A x l $.$.i.e.Z v l C 9.8.,.C x l A %.%.C g x j * g B B b > z D.K D > H ",
"F > H H [ Y - k k r f C l j ; j B $.9.r.l x b $.r.2.i.Z v x C 8.C i.*.M x B 8.$.,.A k x m r.&.V w - z k r B V l j ; 5 [ H z > F ",
"= = > H Y 8 5 % - & + - 5 5 - 7 z 5 5 6 5 6 6 7 x J 8 x x m 6 8 6 5 - 5 x 7 8 7 6 6 6 7 6 5 4 - % 4 % - % + - 5 ; ; 7 Y H > = % ",
". X X X = + + o o X o + + % + + - - - - = = - - - - : - : : % + + + + + - - : - = % % % + - + + o + o o + X + + % % = + X X   X ",
"( / ( ` oX+X.X).!.D.Y U.Q.@X{.@X+X XoX$X@X{.).L.;.Y U.).@X}.@X).oX{.{.|.).L.I.-.! P.~.[.OX@XQ.J.D.{.).Q.S.Y U.!.+X|.$X+X` ( / ( ",
": = + = Y ( [ ( P H : Y P S.[ [ ( I ( ] [ ;./ / F 7 / / D.S.[ / I Y ] ] [ ( ( F > R / :.' ' P F F ;.( I F 5 / P [ [ [ / = o = > ",
"= = = = 9 z H 9 : Y ! j > P H H P I I H z P G 7 Y J H ; T 9 H R R I H z Y > z Y I P z I K H 9 : : H > ; E ! z > I z z H - = o = ",
"= = = = K H z G z .X&XP P P P P ! ! K H K I H F +X&XF P H P P R ! L P H F D H $X%X/ H 9 9 P z 9 > F H D .X&XK P I I P H : = = : ",
"H > > H _ ( ! I R R ! ~ ` ;.D.;.D.:.[ ( [ [ [ ! Y ^ ( ` ` ` ` ` :.:.] ` ] ! ! ! ~ ! _ _ _ ( ! ! I ! P Y ! ! ! ` [ D.[ ( z 7 > D ",
"P P L P F.B.B.:.[ B.G.P.E.(.[.E.E.(.T.E.^.(._._.U.[.'.(.T.T.K.K.T.T.E.(.E.U.(.(./.(.T.E.T.U.J.H.F.B.:.[ B.G.P.(.(.[.^.G.I P P P "
};
