/* XPM */
static char *_b73eb41a23c4dd0f98c1a34d95cf91cbvfB5Ml7G7HhwUaV[] = {
/* columns rows colors chars-per-pixel */
"64 64 122 2 ",
"   c #050504",
".  c #080707",
"X  c #080807",
"o  c #070708",
"O  c #070808",
"+  c #0B0B0B",
"@  c #130F0C",
"#  c #0F100E",
"$  c #11110F",
"%  c #0F1010",
"&  c #141413",
"*  c #191615",
"=  c #171817",
"-  c #191917",
";  c #171718",
":  c #1C1C1B",
">  c #201F1E",
",  c #1F201D",
"<  c #21211E",
"1  c #242423",
"2  c #282726",
"3  c #272825",
"4  c #292926",
"5  c #2D2D2B",
"6  c #312F2D",
"7  c #2F302C",
"8  c #31312E",
"9  c #2F3231",
"0  c #343532",
"q  c #393735",
"w  c #373834",
"e  c #393A36",
"r  c #3E3E3A",
"t  c #3C3C3C",
"y  c #3E3E3D",
"u  c #3F3F3F",
"i  c #403F3B",
"p  c #413F3B",
"a  c #3F403C",
"s  c #3F403D",
"d  c #41413E",
"f  c #42413E",
"g  c #44423F",
"h  c #43443E",
"j  c #3E4140",
"k  c gray25",
"l  c #414143",
"z  c #424441",
"x  c #444443",
"c  c gray27",
"v  c #474544",
"b  c #464644",
"n  c #484443",
"m  c #484744",
"M  c #454943",
"N  c #4A4B44",
"B  c #494947",
"V  c #494B47",
"C  c #4A4A46",
"Z  c #4A4D47",
"A  c #474948",
"S  c #494948",
"D  c #4B4A4A",
"F  c #4D4D48",
"G  c #4C4C4B",
"H  c #4F4E4C",
"J  c #514E4A",
"K  c #4D5047",
"L  c #4F504B",
"P  c #4E504D",
"I  c #505049",
"U  c #50504C",
"Y  c #51534C",
"T  c #52534E",
"R  c #56514F",
"E  c #4F5150",
"W  c #525250",
"Q  c #535452",
"!  c gray34",
"~  c #5A5757",
"^  c #565853",
"/  c #575954",
"(  c #595B55",
")  c #595A56",
"_  c #565958",
"`  c #5C5D59",
"'  c #5E5E59",
"]  c #5F615B",
"[  c #61625D",
"{  c #61615E",
"}  c #62635F",
"|  c #6A685E",
" . c #606060",
".. c #646461",
"X. c #656562",
"o. c #686662",
"O. c #666963",
"+. c #6A6B66",
"@. c #6D6E69",
"#. c #6E716A",
"$. c #72736D",
"%. c #727271",
"&. c #747473",
"*. c #757672",
"=. c #767972",
"-. c #7A7C75",
";. c #7D7E79",
":. c #7E817A",
">. c #82837D",
",. c #848581",
"<. c #868982",
"1. c #878884",
"2. c #898985",
"3. c #8A8C86",
"4. c #8D8F8A",
"5. c #8D9189",
"6. c #92948D",
"7. c #959691",
"8. c #969892",
"9. c #999B95",
"0. c #9C9E99",
"q. c #A1A29C",
/* pixels */
"r 8 6 0 0 9 5 9 5 q r 2 % : y z 8 6 4 8 6 5 5 6 6 5 5 5 q 6 $ & 4 M B w J ( W z b B b i N F b r 6 & & 1 e D w A M P n n c z c R ",
"0 5 6 0 0 0 5 5 5 0 4 : + : i B 8 5 5 5 5 6 5 5 5 5 5 4 5 5 @ & 4 B F 3 y c y 0 8 0 8 5 5 8 8 8 1 & & 4 e Z 3 7 q 7 4 5 5 5 5 0 ",
"6 4 5 5 0 q 9 5 6 9 5 1 + : e K 8 6 8 4 3 3 5 6 6 5 4 4 0 5 & & 8 N N 3 u l t 0 8 0 8 8 6 8 8 8 4 * - 8 e M 4 5 9 9 4 5 5 5 6 0 ",
"q 4 4 4 9 q q 0 0 0 y 2 # - q Y e e 8 8 3 2 5 5 6 5 5 5 0 q & ; 8 I Y h D u q 6 0 0 8 8 5 5 5 0 e & - 0 M P 0 q 5 5 6 6 6 5 5 8 ",
"y e e y e 0 0 0 0 0 8 : X < h Y 0 8 5 4 3 3 3 3 4 4 3 3 5 3 > 1 e  . .w t q 0 5 5 8 4 3 1 1 1 6 6 < 0 r ( ( q 5 3 3 3 8 6 1 1 1 ",
"6 0 q q 9 2 1 1 1 1 < - + 4 Y ] Y 1 : : : < : * - - : - - - : z D %.&.w : > : ; : : : : : : : : : : V Y L L 7 : : : < 4 4 q m D ",
"; - - : : : - : : - 4 > : 3 0 } V 4 : : : : : : < : : : < > $ : 1 q q 1 1 : : : < < < 1 5 5 2 3 < $ < 5 w ] a 0 8 4 8 f r  .<.2.",
"5 4 5 0 e e q q q q q > + & < 1 < e a i e f a i h h f a i 5 + - 5 0 5 0 q q y y f e f B ^ ^ F F q $ + : 3 / P G N Y ` -.$.$.2.1.",
"c c Z J ` ` Q Q ` Q r & . < ^ Y 8 V ( ( ^ Y ^ ^ / _ ( Y V 3 + 1 q Z h a F P Y L T T ( } +.+. .( r + : q 0 = 1 D ^ ' $.0.3.' ' ^ ",
"h F F W } } / ^ ` Q e * X < X.@.0 M Y Y Y F J Y F J J D h 3 $ 1 y P c e h a b M B F Y Y Q ! Y D 0 @ , y ( D 1 z n I { >.$.i r r ",
"0 8 8 0 y r e 0 q q 8 - + < ] @.q r 8 5 5 5 8 8 5 0 9 5 6 4 & 1 x / z 7 2 2 1 1 4 4 5 5 5 4 4 5 1 & : y ( W 4 3 1 5 q b e : 1 1 ",
"5 - + & & & & & $ & < : @ 1 ^ X.q 4 $ + + + + + + + + # : 1 & 5 F ` x 2 + + + + + + + + + + o + : $ 1 y P H 4 % . @ & + + + & & ",
"< X X X X O O O     & ; + 5 W X.0 & + + o o o o +   . + + % % 5 E ..M & + + + + + + + X o + + + $ $ 3 i ! Q : + + % + + + + & # ",
"5 $ @ $ $ + # # & & 1 - + 4 W X.0 : & $ % & & ; : = ; : : : & 5 Q +.H < : : & & + # % % % % % & : $ 1 r ( Q 2 : : : ; ; - & ; ; ",
"e 1 - - ; * = ; ; : e 1 & 4 ^ ` q 8 : : : : : 2 1 1 2 4 9 9 ; 4 Q +.G t 4 4 3 2 1 1 5 4 2 2 1 1 3 & > h ` Q 7 0 e q 5 3 1 4 4 2 ",
"0 8 4 1 1 3 3 3 2 1 4 : % 8 ^ X.q 3 3 3 3 1 4 5 5 5 5 9 5 1 % 5 ! @.E 0 q q ` $.@.$.$.$.@.%.+.D 5 & 1 z +.] 0 q r y r r r y y e ",
"q h i e i h f e e w 4 - # 7 T } e 8 r i q w h V M y z M a 2 % 5 ( *.F h ( ( 5.q.8.6.8.9.7.0.9.$.a & 1 h ` ( c ..} ! P ^ ( ] ^ Y ",
"Y } ^ ^ +.o.} ( Q F f < $ 5 T } f K Y ^ K L } +.] ] ] ] ( 0 & 4 / $.M @.<.:.5.8.;.>.>.>.>.>.6.>.X.& 2 a ( W } 4.>.$.+.@.=.-.=.#.",
"} $.$.-.>.>.$.$.*.@.W 1 $ 5 L ( h } +.+.] ..#.=.$.@.$.-.#.a % 3 W X.h >.9.:.=.#.T T T T L ( @.$.+.@ 2 B ` W X.4.>.-.$.#.=.:.-.$.",
"} @.@.=.>.=.+.@.@.+.F : # 7 V T q Y ( ( / ( ( ] } ( ] X.W w & 1 D ` h O.=.} ( ^ N g h f f Y ^ P c & 8 ^ X.W y Q Q Q J H ^ ( ^ Y ",
"h h b B N f h h h r 0 : # 0 H Y 6 6 5 5 5 5 5 7 5 5 5 5 5 : * 4 J } h 3 7 7 w a 8 5 4 4 7 w q 4 : & 0 J } F 1 - : 1 ; ; & - & & ",
"* + + + $ @ + + + & e 4 - w H Y 8 1 o . O O O o +   +   + - & < F ..f 1 O & , , : * * * = : 1 - : & 3 h ` F 5 & o & * .   + + . ",
"+ + + + + + + + 3 7 w 0 8 F ] Y 6 1 & % % % % % & $ & & & , $ < N } r 1 = = * * $ & $ & $ & & : : $ 2 f ! c 1 - & - : & ; & - & ",
"- & - - - - - 3 : : 7 2 : y Y o.6 * y 6 & - : - : : - : - $ $ < q F 0 : , , * * * & & & & & & $ & & 4 a / F - - : : : - - - : - ",
"- - : : , , , a 8 8 ,   1 e 0 T D g -.R : : 1 : 1 1 : 1 < 3 < 3 e Y 0 1 3 < < < < : - : , , , , , $ < f ^ Y , , : > , , - , , - ",
"7 5 5 7 7 0 w h f < X # 0 B ] a Y | =.e 6 q q 0 0 0 r z e e 8 8 8 N b h e w 0 w 8 8 8 f a a M h 4 : 7 f T K 8 8 0 q w 0 0 a a w ",
"K K B V K K M e e < $ 7 / Y Y B Y h ( R ( } ` / / / F q 5 : < < V N Y f T ^ K Y ^ ^ ^ } } } ] T M L 4 8 0 w 0 Y W ^ Y / O.$.| ] ",
"+.+.} } @.@.^ 8 ^ T a V >.#.f h c y | $.*.-.*.#.-.:./ 1 4 8 w d ^ Y f M #.$.$.=.-.$.$.-.:.:.=.#.$.^ 0 h ( N T @.#.=.=.=.3.8.>.:.",
":.:.=.=.:.:.} 9 V 8 y F -.;.Y q g ^ %.;.;.2.,.2.0.9...0 1 c B V M a a Q :.3.>.5.4.<.<.5.6.3.<.2.-.W B >.#.^ ] :.:.5.6.>.6.9.6.6.",
"=.#.+.O.#.#.( 9 ( < & 8 J Y Z q Y Y X.+.@.*.&.;.4.:.W 4 + 4 L +.M , w K #.:.:.:.=.=.=.-.-.=.%._ Q ( H } ] h h #.#.:.:.$.:.$.:.:.",
"M h a a a a 7 3 ( 1 + : 1 + + 1 b 0 e e i u z B A a 5 & % 1 0 b 5 : 7 3 w a 8 d w r r q w q 8 1 ; c ,.4.=.V : a a w a a a w w a ",
"# + + O O O # # q 0   0 e     1 8 1 z # + + o + + + ; 1 4 4 % & e y 1 # , # X   + O + O O & : : : ; ;.0.#.8 1 1 $           +   ",
"o o o o o + : & : u 4 e q   - z 4 z q % o o +   + > % 1 q & + % 5 E 5 y y & + o + + + o + : > j > 0 t l q z 1 q 1 o o + o + & + ",
"% % + % % & & & . 9 A ` a 1 y q & 2 6 & + + & + % & % % : + : : o 4 - 1 1 - & & & ; & % % : & l _ l ; % : ( y 5 - # + % % % & & ",
": ; ; ; : : ; &     2 G J w < $ + - 1 ; ; ; ; ; ; ; ; o 1 4 5 q - - + # > 1 1 > > 1 : : : 4 + > ` 5 + q ; : q : 1 : ; ; : : ; : ",
"4 2 1 2 5 4 4 : +     + & + + $ : q 1 1 1 1 1 1 1 > : o ; 4 4 e 1 # & 5 q 9 9 9 9 9 0 5 5 5 % o 2 + & c 1 & w 4 4 1 1 1 1 2 1 1 ",
"q q 9 5 q e q 5 &     + $ + + + 1 5 6 6 4 5 5 9 5 5 1 +     + + # & ; t B t t t u j t q q q ; . : > ; A 9 q 9 q 9 5 5 5 6 9 6 6 ",
"l y 0 q z b q q &     + - > : $ * 0 e q 0 9 0 q 0 9 2 +       + + ; + 0 A z u c G G A t u z ;   o > > 5 0 5 % 9 q q 9 9 0 0 0 0 ",
"G l q u c D e r :   + + < < : ; & 8 y y t q q q e q y : &   + & + $ % l E G A G E E A u l G :       +   o + ; q q t 0 0 0 0 q q ",
"E M u u D D u z z 2 & + < < : ; * n z z y e t t y e k c 4 + + & & = ; G _ G A G E Q B u B G q & o % > ; + + t y t t t t t t q q ",
"Q D y i D n z t e 1 % + 1 2 5 2 * m Y B h r t t r r r c 0 + + : < < : h / E G E E E A c c B t ; + + 1 > : - y y y e t t t q q q ",
"Q x t t z z y e q 1 o % 1 q y 4 & > J h d r r r r r z b 2   $ , 1 3 : X 0 T G E _ E A l z F 9     & < 1 1 - y z e y r t q q q q ",
"H c t t y z k t y 6 + ; 5 e z r 8 < 0 8 1 i ` c 1 0 M 8 : + : 5 8 8 5 : q ' L ( _ E c l h X.e + . - 3 5 5 : y k e e y z u e r r ",
"H c t e r c c i z q & : 0 z J c h h a 8 < 6 r q 3 < 4 8 8 5 0 r e N e 8 7 w b [ ..` ( P ^ h w < - < 8 8 0 1 n c y y z z j r w r ",
"H c y e z H B k l 0 + * 0 z ^ Y Y Y K V 8 e g f 8 b ( N h h N N K Y h d h h 8 8 q 0 7 < < 8 7 3 8 8 0 w e 5 z c k i g z z t e y ",
"H c i y z J D z z 6   & 5 f J ( ( Y K ^ f V Y T M ( $.Y ^ { ] T ( ( { X.{ T h 8 z P B e 8 N h h a f a h y q z z k z z z z y y y ",
"c z i y z H D z B 9 + & 0 r F Y ( ^ ( ( V ^ ( } N h Y ( ( [ } ( } } -.-.{ ( I N / / ] K h ( Y Y B K Y Y J B J k t z z z z k y i ",
"z z z u z H D l B 6 + ; q j m B J Y ^ T N ^ ( } K h I ( ( ^ ^ ] } +.@.( [ { Y N ] ( ^ K a ( T ( ( Y ^ ^ Q H H k i p z z c z t z ",
"t c z z z D n z n 9 o % 9 z q q t h z z t D F W f w c B B A V V / Y Y L Y P f A | Y K h 0 / G D Y I Y N B A H k y z c z c p i z ",
"g n n n z c B b D e : + & 1 2 1 4 3 4 4 1 5 q q 1 5 0 0 0 w e 8 e e a e e a 7 q P f a 8 4 z y t h d d i f A G z i z z z k z k i ",
"D D B z i c c z c c 4 +   + ; & $ # & + + & = & + = : : : : : : : : : 2 2 1 : ; 3 < < - - 7 4 5 0 5 3 5 5 j Z j y z z z c n z k ",
"c B z y y c c z c D y : o     o                     O O O + + o + + + + + + o   + + +   O & % % - & - 1 9 j H j t i z c c c k i ",
"h c z i k c B B A Z D y 5 : . o                                     O O   o             o   o % & 1 9 y D E E c i k l c z z i i ",
"i z c t k n B B D H H c c B u 5 4 3 1 - * 1 : 1 1 1 5 q q 9 0 0 0 q h z t t j j j c c z l j A G P L E _ E E E c t l c c z z t i ",
"z f l k z n D B A J H c l H W D c D D i z n i t r h c P E c c A D E Q / G G E E E Q E H A A E E E Q Q Q _ E E c t z D B z k t k ",
"r z c z n B M D D W F z z E H D D F B z z B y t y c P ^ E A A A A E _ Q H A E E E E E Z A A G E E E E E E _ E A t k E J k i t i ",
"u u l D D n n c A H A z c Y J D M J D u z B z t u A E E E A u A Z E Q _ G G E E E E E A G E E E E E E G G _ E c t i H G l z t k ",
"l u u n M z z i l D D z A L E n D D A l c n c r u A H E E A A l A E _ Q G A E E _ E G G G E E ! E E E E E _ E c t z H G c l z k ",
"B c D F D z k t c D A z c E H D H H B k z B c z u c G E E A A A A E Q ! E A E Q E E E A A D E E E G E A G E G j i l J H n z i z ",
"M D ! _ W n c t c J c y l Z A x G J B l z D B i u B E _ E E E A A H ! _ G A E Q _ E G G D E E E E G E A G E E c i k H E n c i k ",
"l u H ! ! Q H l A D B u l D M l D D c z z D n j c n W Q E E E A l D Q Q A A E Q E E E E j E E _ G E E E A E E A l l D H c c b u ",
"u u u G H W W c A G B u c H G c D H A y j M D x l D W Q ! E E A l D Q E A B E E E E E A E E E E E j E E Z D E G B j D D c D z j ",
"c c l F B c c B E Q G l B W G B F E B k i B n c z D W Q ! _ Q D l D Q E A A E E E A E E _ E _ E E E E E E E Q E G c D A B D B n ",
"B B G G B c l l B Q G j B E A B D H B z i B A u z D H Q E ! E D A D Q E A l A D E E j E _ j j E E E j E E _ _ Q D B F D c B H W "
};
